<?xml version="1.0" encoding="utf-8"?>
<!-- Generator: Adobe Illustrator 18.1.1, SVG Export Plug-In . SVG Version: 6.00 Build 0)  -->
<svg version="1.1" id="Layer_1" xmlns="http://www.w3.org/2000/svg" xmlns:xlink="http://www.w3.org/1999/xlink" x="0px" y="0px"
	 viewBox="0 0 98 114.2" enable-background="new 0 0 98 114.2" xml:space="preserve">
<path fill="#040000" d="M43.6,70.5h19.2v19.2H43.6V70.5z M23.2,0l-1.4,2.4l18.9,10.9l-9.6,16.6L12.2,19l-1.4,2.4l18.9,10.9
	l-9.6,16.5L1.3,37.9L0,40.2l21.3,12.3l10.9-18.8L51.7,45v22.8H40.8v46.4h2.8V92.5h19.2v21.7h2.7V67.8H54.4V45l20-11.6l0,0L97.3,39
	l0.7-2.7l-22-5.5l6-21.3l-2.7-0.7L73,31.1L53.1,42.6L33.5,31.3l11-19L23.2,0z"/>
</svg>
