<?xml version="1.0" encoding="utf-8"?>
<!-- Generator: Adobe Illustrator 18.1.1, SVG Export Plug-In . SVG Version: 6.00 Build 0)  -->
<svg version="1.1" id="Layer_1" xmlns="http://www.w3.org/2000/svg" xmlns:xlink="http://www.w3.org/1999/xlink" x="0px" y="0px"
	 viewBox="0 0 116.1 105.8" enable-background="new 0 0 116.1 105.8" xml:space="preserve">
<g>
	<defs>
		<rect id="SVGID_1_" width="116.1" height="105.8"/>
	</defs>
	<clipPath id="SVGID_2_">
		<use xlink:href="#SVGID_1_"  overflow="visible"/>
	</clipPath>
	<path clip-path="url(#SVGID_2_)" d="M33.7,33.2c-2.5,2.7-6.1,4.4-10,4.4c-7.7,0-14-6.4-14-14.4c0-7.9,6.3-14.4,14-14.4
		c3.9,0,7.5,1.7,10,4.4l6.5-6.5C36,2.5,30.2,0,23.7,0C10.6,0,0,10.4,0,23.2s10.6,23.2,23.7,23.2c6.5,0,12.3-2.5,16.6-6.6L33.7,33.2z
		"/>
	<polygon clip-path="url(#SVGID_2_)" points="15.9,70.1 1.8,70.1 1.8,61.3 39.9,61.3 39.9,70.1 25.8,70.1 25.8,104.9 15.9,104.9 	
		"/>
	<path clip-path="url(#SVGID_2_)" d="M54.8,23.2c0-7.2,3.8-13.5,9.4-17l-3.1-5.3c-7.9,4.4-13.3,12.7-13.3,22.2S53.3,41,61.2,45.4
		l3.1-5.3C58.6,36.7,54.8,30.4,54.8,23.2"/>
	<path clip-path="url(#SVGID_2_)" d="M109.2,23.2c0-7.2-3.8-13.5-9.4-17l3.1-5.3c7.9,4.4,13.3,12.7,13.3,22.2s-5.4,17.9-13.3,22.2
		l-3.1-5.3C105.4,36.7,109.2,30.4,109.2,23.2"/>
	<path clip-path="url(#SVGID_2_)" d="M54.8,83.6c0-7.2,3.8-13.5,9.4-17l-3.1-5.3C53.3,65.7,47.9,74,47.9,83.6
		c0,9.5,5.4,17.9,13.3,22.2l3.1-5.3C58.6,97.1,54.8,90.8,54.8,83.6"/>
	<path clip-path="url(#SVGID_2_)" d="M109.2,83.6c0-7.2-3.8-13.5-9.4-17l3.1-5.3c7.9,4.4,13.3,12.7,13.3,22.3
		c0,9.5-5.4,17.9-13.3,22.2l-3.1-5.3C105.4,97.1,109.2,90.8,109.2,83.6"/>
</g>
</svg>
