<?xml version="1.0" encoding="utf-8"?>
<!-- Generator: Adobe Illustrator 18.1.1, SVG Export Plug-In . SVG Version: 6.00 Build 0)  -->
<svg version="1.1" id="Layer_1" xmlns="http://www.w3.org/2000/svg" xmlns:xlink="http://www.w3.org/1999/xlink" x="0px" y="0px"
	 viewBox="11 291 770 30" enable-background="new 11 291 770 30" xml:space="preserve">
<g>
	<polygon fill="#FFFFFF" points="21.4,314.3 21.4,298.8 14.3,298.8 14.3,293.2 34.5,293.2 34.5,298.8 27.3,298.8 27.3,314.3 	"/>
	<path fill="#FFFFFF" d="M35.9,319.3c-2.7,0-4.7-1.7-4.9-4.3l-0.1-1.2l5.1-2.7l-5.7-12.6h6.4l2.9,6.6l2.6-6.6h6.1L42.1,314
		C41.3,315.8,39.8,319.3,35.9,319.3z M36.4,313l0.2-0.6l-0.2-0.5V313z"/>
	<path fill="#FFFFFF" d="M46.8,319v-20.4h5.8v0.2c0.8-0.3,1.7-0.6,2.7-0.6c4.4,0,7.6,3.4,7.6,8.2s-3.1,8.2-7.6,8.2
		c-0.9,0-1.9-0.2-2.7-0.5v4.9L46.8,319L46.8,319z M54.6,303.6c-1.3,0-2.1,1-2.1,2.6v0.6c0,1.5,0.8,2.7,2.1,2.7
		c1.9,0,2.2-1.6,2.2-2.9S56.4,303.6,54.6,303.6z"/>
	<path fill="#FFFFFF" d="M70.1,314.7c-4.7,0-8.2-3.5-8.2-8.2s3.5-8.2,8.2-8.2c4.7,0,8.2,3.5,8.2,8.2
		C78.3,311.1,74.7,314.7,70.1,314.7z M70.1,303.6c-2.1,0-2.3,2-2.3,2.9c0,0.8,0.2,2.8,2.3,2.8c2.1,0,2.3-2,2.3-2.8
		C72.4,305.6,72.2,303.6,70.1,303.6z"/>
	<path fill="#FFFFFF" d="M79.1,319.3c-1.3,0-2.8-0.5-3.7-1.3l-1-0.8l1.9-4.7l1.7,1.2c0.1,0.1,0.2,0.1,0.3,0.2v-14.8h-0.1v-6.1h6.2
		v6.1h-0.1v15C84.1,317.4,82.2,319.3,79.1,319.3z"/>
	<path fill="#FFFFFF" d="M97.1,314.6c-1.3,0-2.3-0.5-3.1-1.3c-1.2,0.8-2.6,1.3-4.2,1.3c-3.3,0-5.6-2.2-5.6-5.2c0-2,0.9-3.1,2.2-4
		l-2.3-0.8l0.8-1.7c1.3-2.8,4-4.4,7.3-4.4c3.8,0,6.2,2.1,6.2,5.4v5.2l2.2-1.4l0.5,5.7l-0.9,0.6C98.9,314.3,98.1,314.6,97.1,314.6z
		 M89.9,309.2c0,0,0.1,0,0.3,0c0.8,0,1.6-0.5,2-0.9l-0.7,0.1c-1.3,0.3-1.6,0.6-1.7,0.6C89.9,309.2,89.9,309.2,89.9,309.2z"/>
	<path fill="#FFFFFF" d="M108.7,314.3v-9c0-1.5-0.7-1.6-1.3-1.6c-1.2,0-1.9,0.9-1.9,2.2v8.4h-5.8v-15.7h5.8v0.2
		c0.8-0.3,1.7-0.6,2.7-0.6c4,0,6.3,2.6,6.3,6.8v9.3H108.7z"/>
	<path fill="#FFFFFF" d="M122.2,314.7c-4.7,0-8-3.5-8-8.2c0-4.8,3.4-8.2,8.2-8.2c3.3,0,5.7,1.6,6.9,4.4l0.6,1.4l-3.8,2.3l4,2
		l-0.5,1.4C128.4,312.8,125.6,314.7,122.2,314.7z M122.4,303.6c-2,0-2.3,1.7-2.3,2.8c0,0.8,0.2,2.8,2.2,2.8c0.6,0,1.4-0.1,1.9-1.5
		l0.5-1.4l-0.5-1.4C123.6,303.6,122.7,303.6,122.4,303.6z"/>
	<path fill="#FFFFFF" d="M138.3,314.3v-9c0-1.5-0.7-1.6-1.3-1.6c-1.2,0-1.9,0.9-1.9,2.2v8.4h-5.8v-21.1h5.8v5.6
		c0.8-0.3,1.7-0.6,2.7-0.6c4,0,6.3,2.6,6.3,6.8v9.3L138.3,314.3L138.3,314.3z"/>
	<polygon fill="#FFFFFF" points="144.9,314.3 144.9,299.3 144.8,299.3 144.8,293.2 151,293.2 151,299.3 150.8,299.3 150.8,314.3 	
		"/>
	<path fill="#FFFFFF" d="M157.9,314.3v-4l5.6-4.8c2.8-2.3,4.3-3.7,4.3-5.5c0-1.2-0.6-1.7-1.9-1.7c-1,0-2.1,0.2-2.1,2.3
		c0,0.3,0,0.7,0.1,0.9l0.9,2.4l-6.2-0.3l-0.3-1.2c-0.2-0.7-0.3-1.5-0.3-2.2c0-4.5,3.1-7.7,7.9-7.7c5.4,0,7.8,3.6,7.8,7.1
		c0,3.8-3.1,6.8-5.6,8.7h6.1v5.6h-16.3L157.9,314.3L157.9,314.3z"/>
	<path fill="#FFFFFF" d="M182.6,314.7c-5.7,0-9.1-4.1-9.1-10.8s3.4-10.8,9.1-10.8c5.7,0,9.1,4.1,9.1,10.8S188.3,314.7,182.6,314.7z
		 M182.6,298.3c-0.9,0-3,0-3,5.5c0,5.5,2.1,5.5,3,5.5c0.9,0,3,0,3-5.5C185.6,298.3,183.6,298.3,182.6,298.3z"/>
	<path fill="#FFFFFF" d="M195.3,314.3v-13.3h-4.7v-5.4h3c2.2,0,2.3-0.1,2.6-1.3l0.3-1.3h4.7v21.2H195.3z"/>
	<path fill="#FFFFFF" d="M210.4,314.7c-4.8,0-8.3-2.9-8.6-7.2l-0.1-1.5l1.2-0.2l-0.5-0.1l0.2-1.7c0.5-2.6,0.9-6.5,0.9-9v-1.7h13.7
		l0.1,1.5c0.1,1.3-0.1,2.3-0.8,3.1c-0.7,0.7-1.6,1.2-2.9,1.2c-0.8,0-2.6-0.1-5.1-0.2c0,0.2,0,0.3-0.1,0.6c0.7-0.2,1.4-0.2,2.2-0.2
		c4.5,0,7.8,3.1,7.8,7.7C218.7,311.3,215.2,314.7,210.4,314.7z M207.7,306.8c0,1.6,1,2.4,2.8,2.4c2.1,0,2.3-1.5,2.3-2.6
		c0-0.7-0.2-2.3-2.3-2.3c-1.4,0-2.1,0.8-2.3,1.2l-0.6,0.9L207.7,306.8z"/>
	<path fill="#FFFFFF" d="M218.4,312v-6.4h6.4v6.4H218.4z M218.4,303.1v-6.4h6.4v6.4H218.4z"/>
	<polygon fill="#FFFFFF" points="238.6,314.3 238.6,298.8 231.4,298.8 231.4,293.2 251.8,293.2 251.8,298.8 244.5,298.8 
		244.5,314.3 	"/>
	<path fill="#FFFFFF" d="M260.5,314.3v-9c0-1.5-0.7-1.6-1.3-1.6c-1.2,0-1.9,0.9-1.9,2.2v8.4h-5.8v-21.1h5.8v5.6
		c0.8-0.3,1.7-0.6,2.7-0.6c4,0,6.3,2.6,6.3,6.8v9.3L260.5,314.3L260.5,314.3z"/>
	<path fill="#FFFFFF" d="M274.3,314.7c-4.7,0-8-3.4-8-8c0-4.8,3.4-8.4,8-8.4c4.4,0,7.6,3.1,7.6,7.8v2.4h-0.1l0.6,0.3l-0.7,1.4
		C280.3,313,277.7,314.7,274.3,314.7z M272.6,308.5c0.5,0.6,1.2,0.8,1.9,0.8c0.9,0,1.5-0.2,1.9-0.8H272.6z"/>
	<path fill="#FFFFFF" d="M297.1,314.3v-4.7h-9.3V305l9.6-11.6h5.6v10.9h3.1v5.5h-3.1v4.7h-5.8V314.3z M297.1,304.1v-2.2l-1.9,2.2
		H297.1z"/>
	<path fill="#FFFFFF" d="M312.5,314.7c-3.5,0-5.9-2.4-5.9-5.9v-4.9H304v-5.2h2.6v-2.9l5.8-1.7v4.7h5.2v5.2h-5.4v4.7
		c0,0.7,0.2,0.7,0.3,0.7c0.3,0,0.6,0,1.2-1.3l1.3-2.6l3.5,4.8l-0.5,0.9C317.4,312.8,315.3,314.7,312.5,314.7z"/>
	<path fill="#FFFFFF" d="M326.9,314.3v-9c0-1.5-0.7-1.6-1.3-1.6c-1.2,0-1.9,0.9-1.9,2.2v8.4h-5.8v-21.1h5.8v5.6
		c0.8-0.3,1.7-0.6,2.7-0.6c4,0,6.3,2.6,6.3,6.8v9.3L326.9,314.3L326.9,314.3z"/>
	<rect x="340.6" y="293.2" fill="#FFFFFF" width="5.9" height="21.1"/>
	<path fill="#FFFFFF" d="M356.7,314.3v-9c0-1.5-0.7-1.6-1.3-1.6c-1.2,0-1.9,0.9-1.9,2.2v8.4h-5.8v-15.7h5.8v0.2
		c0.8-0.3,1.7-0.6,2.7-0.6c4,0,6.3,2.6,6.3,6.8v9.3H356.7z"/>
	<path fill="#FFFFFF" d="M370.2,314.7c-3.5,0-5.9-2.4-5.9-5.9v-4.9h-2.6v-5.2h2.6v-2.9l5.8-1.7v4.7h5.2v5.2h-5.2v4.7
		c0,0.7,0.2,0.7,0.3,0.7c0.3,0,0.6,0,1.2-1.3l1.3-2.6l3.5,4.8l-0.5,0.9C375.1,312.8,373,314.7,370.2,314.7z"/>
	<path fill="#FFFFFF" d="M382.7,314.7c-4.7,0-8-3.4-8-8c0-4.8,3.4-8.4,8-8.4c4.4,0,7.6,3.1,7.6,7.8v2.4h-0.1l0.6,0.3l-0.7,1.4
		C388.7,313,386.2,314.7,382.7,314.7z M380.9,308.5c0.5,0.6,1.2,0.8,1.9,0.8c0.9,0,1.5-0.2,1.9-0.8H380.9z"/>
	<path fill="#FFFFFF" d="M390.1,314.3v-15.7h5.8v0.1c0.7-0.3,1.5-0.5,2.3-0.5c3.1,0,5.4,2.3,5.4,5.7c0,0.2,0,0.9-0.2,1.4l-0.2,0.8
		l-5.7,1.7l0.7-3c0-0.1,0.1-0.3,0.1-0.5c0-0.5-0.1-0.7-0.1-0.7s-0.1,0-0.3,0c-0.9,0-1.7,1.2-1.7,2.6v7.9h-5.9L390.1,314.3
		L390.1,314.3z"/>
	<path fill="#FFFFFF" d="M412.4,314.3v-9c0-1.5-0.7-1.6-1.3-1.6c-1.2,0-1.9,0.9-1.9,2.2v8.4h-5.8v-15.7h5.8v0.2
		c0.8-0.3,1.7-0.6,2.7-0.6c4,0,6.3,2.6,6.3,6.8v9.3H412.4z"/>
	<path fill="#FFFFFF" d="M431,314.6c-1.3,0-2.3-0.5-3.1-1.3c-1.2,0.8-2.6,1.3-4.2,1.3c-3.3,0-5.6-2.2-5.6-5.2c0-2,0.9-3.1,2.2-4
		l-2.3-0.8l0.8-1.7c1.3-2.8,4-4.4,7.3-4.4c3.8,0,6.2,2.1,6.2,5.4v5.2l2.2-1.4l0.5,5.7l-0.9,0.6C432.9,314.3,432,314.6,431,314.6z
		 M423.8,309.2c0,0,0.1,0,0.3,0c0.8,0,1.6-0.5,2-0.9l-0.7,0.1c-1.3,0.3-1.6,0.6-1.7,0.6C423.8,309.2,423.8,309.2,423.8,309.2z"/>
	<path fill="#FFFFFF" d="M440.4,314.7c-3.5,0-5.9-2.4-5.9-5.9v-4.9h-2.6v-5.2h2.6v-2.9l5.8-1.7v4.7h5.2v5.2h-5.2v4.7
		c0,0.7,0.2,0.7,0.3,0.7c0.3,0,0.6,0,1.2-1.3l1.3-2.6l3.5,4.8l-0.5,0.9C445.3,312.8,443.2,314.7,440.4,314.7z"/>
	<polygon fill="#FFFFFF" points="445.8,314.3 445.8,299.3 445.6,299.3 445.6,293.2 451.7,293.2 451.7,299.3 451.6,299.3 
		451.6,314.3 	"/>
	<path fill="#FFFFFF" d="M459.8,314.7c-4.7,0-8.2-3.5-8.2-8.2s3.5-8.2,8.2-8.2c4.7,0,8.2,3.5,8.2,8.2
		C467.9,311.1,464.4,314.7,459.8,314.7z M459.8,303.6c-2.1,0-2.3,2-2.3,2.9c0,0.8,0.2,2.8,2.3,2.8c2.1,0,2.3-2,2.3-2.8
		C462.1,305.6,461.9,303.6,459.8,303.6z"/>
	<path fill="#FFFFFF" d="M477,314.3v-9c0-1.5-0.7-1.6-1.3-1.6c-1.2,0-1.9,0.9-1.9,2.2v8.4H468v-15.7h5.8v0.2
		c0.8-0.3,1.7-0.6,2.7-0.6c4,0,6.3,2.6,6.3,6.8v9.3H477z"/>
	<path fill="#FFFFFF" d="M495.6,314.6c-1.3,0-2.3-0.5-3.1-1.3c-1.2,0.8-2.6,1.3-4.2,1.3c-3.3,0-5.6-2.2-5.6-5.2c0-2,0.9-3.1,2.2-4
		l-2.3-0.8l0.8-1.7c1.3-2.8,4-4.4,7.3-4.4c3.8,0,6.2,2.1,6.2,5.4v5.2l2.2-1.4l0.5,5.7l-0.9,0.6C497.5,314.3,496.7,314.6,495.6,314.6
		z M488.4,309.2c0,0,0.1,0,0.3,0c0.8,0,1.6-0.5,2-0.9l-0.7,0.1c-1.3,0.3-1.6,0.6-1.7,0.6C488.4,309.2,488.4,309.2,488.4,309.2z"/>
	<rect x="498.2" y="293.2" fill="#FFFFFF" width="5.8" height="21.1"/>
	<polygon fill="#FFFFFF" points="518.1,314.3 518.1,298.8 510.9,298.8 510.9,293.2 531.3,293.2 531.3,298.8 524.1,298.8 
		524.1,314.3 	"/>
	<path fill="#FFFFFF" d="M532.7,319.3c-2.7,0-4.7-1.7-4.9-4.3l-0.1-1.2l5.1-2.7l-5.7-12.6h6.4l2.9,6.6l2.6-6.6h6.1l-6.2,15.4
		C537.9,315.8,536.5,319.3,532.7,319.3z M533.1,313l0.2-0.6l-0.2-0.5V313z"/>
	<path fill="#FFFFFF" d="M543.5,319v-20.4h5.8v0.2c0.8-0.3,1.7-0.6,2.7-0.6c4.4,0,7.6,3.4,7.6,8.2s-3.1,8.2-7.6,8.2
		c-0.9,0-1.9-0.2-2.7-0.5v4.9L543.5,319L543.5,319z M551.3,303.6c-1.3,0-2.1,1-2.1,2.6v0.6c0,1.5,0.8,2.7,2.1,2.7
		c1.9,0,2.2-1.6,2.2-2.9S553.2,303.6,551.3,303.6z"/>
	<path fill="#FFFFFF" d="M566.8,314.7c-4.7,0-8.2-3.5-8.2-8.2s3.5-8.2,8.2-8.2s8.2,3.5,8.2,8.2C575,311.1,571.5,314.7,566.8,314.7z
		 M566.8,303.6c-2.1,0-2.3,2-2.3,2.9c0,0.8,0.2,2.8,2.3,2.8c2.1,0,2.3-2,2.3-2.8C569.1,305.6,568.9,303.6,566.8,303.6z"/>
	<path fill="#FFFFFF" d="M581.8,319.3c-5,0-8.2-2-8.2-5.2c0-1.2,0.5-2.2,1.3-2.9c-0.2-0.5-0.3-1.2-0.3-1.7c0-1,0.3-1.9,1-2.7
		c-0.5-0.8-0.7-1.7-0.7-2.7c0-3.5,2.8-5.9,6.8-5.9c1,0,2.1,0.2,3,0.6c1-0.9,2.3-1.5,3.7-1.5c0.2,0,0.5,0,0.8,0l1.3,0.2l0.7,5.8
		l-2.3-0.5c-0.1,0-0.2,0-0.3,0s-0.1,0-0.2,0c0.1,0.5,0.1,0.9,0.1,1.3c0,1.9-0.8,3.4-2.1,4.4c2.6,0.6,4.1,2.3,4.1,4.8
		C590.6,317,587.1,319.3,581.8,319.3z M579.4,313.9c0.2,0.1,0.9,0.5,2.4,0.5s2.4-0.2,2.8-0.5c-0.1,0-0.3,0-0.7,0h-3.8
		C579.7,313.7,579.5,313.9,579.4,313.9z M581.7,303.3c-0.2,0-1,0.1-1,0.8c0,0.8,0.8,0.9,1,0.9c0.3,0,1-0.1,1-0.9
		C582.6,303.4,581.9,303.3,581.7,303.3z"/>
	<path fill="#FFFFFF" d="M589.9,314.3v-15.7h5.8v0.1c0.7-0.3,1.5-0.5,2.3-0.5c3.1,0,5.4,2.3,5.4,5.7c0,0.3,0,0.9-0.2,1.4l-0.3,0.8
		l-5.7,1.7l0.7-3c0-0.1,0.1-0.3,0.1-0.5c0-0.5-0.1-0.7-0.1-0.7s-0.1,0-0.3,0c-0.9,0-1.7,1.2-1.7,2.6v7.9L589.9,314.3L589.9,314.3z"
		/>
	<path fill="#FFFFFF" d="M614.9,314.6c-1.3,0-2.3-0.5-3.1-1.3c-1.2,0.8-2.6,1.3-4.2,1.3c-3.3,0-5.6-2.2-5.6-5.2c0-2,0.9-3.1,2.2-4
		l-2.3-0.8l0.8-1.7c1.3-2.8,4-4.4,7.3-4.4c3.8,0,6.2,2.1,6.2,5.4v5.2l2.2-1.4l0.5,5.7l-0.9,0.6C616.9,314.3,616,314.6,614.9,314.6z
		 M607.8,309.2c0,0,0.1,0,0.3,0c0.8,0,1.6-0.5,2-0.9l-0.7,0.1c-1.3,0.3-1.6,0.6-1.7,0.6C607.8,309.2,607.8,309.2,607.8,309.2z"/>
	<path fill="#FFFFFF" d="M617.6,319v-20.4h5.8v0.2c0.8-0.3,1.7-0.6,2.7-0.6c4.4,0,7.6,3.4,7.6,8.2s-3.1,8.2-7.6,8.2
		c-0.9,0-1.9-0.2-2.7-0.5v4.9L617.6,319L617.6,319z M625.4,303.6c-1.3,0-2.1,1-2.1,2.6v0.6c0,1.5,0.8,2.7,2.1,2.7
		c1.9,0,2.2-1.6,2.2-2.9S627.3,303.6,625.4,303.6z"/>
	<path fill="#FFFFFF" d="M642.5,314.3v-9c0-1.5-0.7-1.6-1.3-1.6c-1.2,0-1.9,0.9-1.9,2.2v8.4h-5.8v-21.1h5.8v5.6
		c0.8-0.3,1.7-0.6,2.7-0.6c4,0,6.3,2.6,6.3,6.8v9.3L642.5,314.3L642.5,314.3z"/>
	<path fill="#FFFFFF" d="M652.2,319.3c-2.7,0-4.7-1.7-4.9-4.3l-0.1-1.2l5.1-2.7l-5.7-12.6h6.4l2.9,6.6l2.6-6.6h6.1l-6.2,15.4
		C657.4,315.8,656,319.3,652.2,319.3z M652.5,313l0.2-0.6l-0.2-0.5V313z"/>
	<path fill="#FFFFFF" d="M670.1,314.3v-21.1h9.7c7.1,0,7.9,4.5,7.9,6.4c0,1.4-0.6,2.7-1.5,3.6c1.3,1,2,2.7,2,4.4c0,4.1-3,6.6-8,6.6
		H670.1z M680.1,308.7c2.2,0,2.2-0.8,2.2-1.3s0-1.4-2.2-1.4h-4.1v2.6h4.1V308.7z M679.9,300.8c1.9,0,1.9-0.6,1.9-1s0-1-1.9-1h-4v2.1
		H679.9z"/>
	<polygon fill="#FFFFFF" points="688.5,314.3 688.5,299.3 688.4,299.3 688.4,293.2 694.6,293.2 694.6,299.3 694.3,299.3 
		694.3,314.3 	"/>
	<path fill="#FFFFFF" d="M702.5,314.7c-4.7,0-8-3.4-8-8c0-4.8,3.4-8.4,8-8.4c4.4,0,7.6,3.1,7.6,7.8v2.4h-0.1l0.6,0.3l-0.7,1.4
		C708.4,313,705.9,314.7,702.5,314.7z M700.6,308.5c0.5,0.6,1.2,0.8,1.9,0.8c0.9,0,1.5-0.2,1.9-0.8H700.6z"/>
	<path fill="#FFFFFF" d="M718.9,314.3v-9c0-1.5-0.7-1.6-1.3-1.6c-1.2,0-1.9,0.9-1.9,2.2v8.4h-5.8v-15.7h5.8v0.2
		c0.8-0.3,1.7-0.6,2.7-0.6c4,0,6.3,2.6,6.3,6.8v9.3H718.9z"/>
	<path fill="#FFFFFF" d="M734.5,314.3v-9c0-1.5-0.7-1.6-1.3-1.6c-1.2,0-1.9,0.9-1.9,2.2v8.4h-5.8v-15.7h5.8v0.2
		c0.8-0.3,1.7-0.6,2.7-0.6c4,0,6.3,2.6,6.3,6.8v9.3H734.5z"/>
	<path fill="#FFFFFF" d="M753.2,314.6c-1.3,0-2.3-0.5-3.1-1.3c-1.2,0.8-2.6,1.3-4.2,1.3c-3.3,0-5.6-2.2-5.6-5.2c0-2,0.9-3.1,2.2-4
		l-2.3-0.8l0.8-1.7c1.3-2.8,4-4.4,7.3-4.4c3.8,0,6.2,2.1,6.2,5.4v5.2l2.2-1.4l0.5,5.7l-0.9,0.6C755,314.3,754.2,314.6,753.2,314.6z
		 M746.1,309.2c0,0,0.1,0,0.3,0c0.8,0,1.6-0.5,2-0.9l-0.7,0.1c-1.3,0.3-1.6,0.6-1.7,0.6C745.9,309.2,746.1,309.2,746.1,309.2z"/>
	<rect x="755.8" y="293.2" fill="#FFFFFF" width="5.8" height="21.1"/>
	<path fill="#FFFFFF" d="M769.7,314.7c-4.7,0-8-3.4-8-8c0-4.8,3.4-8.4,8-8.4c4.4,0,7.6,3.1,7.6,7.8v2.4h-0.1l0.6,0.3l-0.7,1.4
		C775.8,313,773.2,314.7,769.7,314.7z M767.9,308.5c0.5,0.6,1.2,0.8,1.9,0.8c0.9,0,1.5-0.2,1.9-0.8H767.9z"/>
	<path fill="#010101" d="M23.1,312.6v-15.5H16V295h16.8v2.1h-7.2v15.5H23.1z"/>
	<path fill="#010101" d="M38.5,312.6L33,300.4h2.6l4.1,9.4h0.1l3.6-9.4h2.2l-5.2,13c-0.9,2.3-2.1,4.2-4.4,4.2c-2,0-3-1.3-3.3-2.8
		l1.9-0.9c0,1.3,0.5,2,1.5,2c0.8,0,1.4-0.7,2-2.1L38.5,312.6z"/>
	<path fill="#010101" d="M50.8,317.2h-2.3v-16.9h2.3v2.7c0.6-1.6,2.1-3,4.4-3c3.6,0,5.8,2.8,5.8,6.4s-2.1,6.4-5.8,6.4
		c-2.3,0-3.7-1.3-4.4-2.9V317.2z M50.7,306.8c0,2.7,1.7,4.4,3.8,4.4c2.6,0,4-1.9,4-4.7s-1.5-4.7-4-4.7c-2.1,0-3.8,1.7-3.8,4.3V306.8
		z"/>
	<path fill="#010101" d="M70.1,312.9c-3.6,0-6.4-2.7-6.4-6.4c0-3.8,2.8-6.4,6.4-6.4c3.6,0,6.4,2.7,6.4,6.4
		C76.6,310.3,73.7,312.9,70.1,312.9z M70.1,311.1c2.4,0,4.1-1.9,4.1-4.5c0-2.8-1.5-4.7-4.1-4.7c-2.4,0-4.1,1.9-4.1,4.7
		C66.1,309.2,67.6,311.1,70.1,311.1z"/>
	<path fill="#010101" d="M82.4,314.2c0,2.1-1,3.4-3.3,3.4c-1,0-2.1-0.3-2.8-0.9l0.6-1.4c0.7,0.5,1.2,0.7,2,0.7
		c0.7,0,1.2-0.5,1.2-1.4v-14.2h2.3C82.4,300.4,82.4,314.2,82.4,314.2z M79.8,297.6V295h2.7v2.6H79.8z"/>
	<path fill="#010101" d="M86.2,303.4c0.8-2,2.8-3.4,5.7-3.4c2.8,0,4.4,1.2,4.4,3.6v6.1c0,0.9,0.5,1.3,1,1.3c0.5,0,0.9-0.2,1.4-0.5
		l0.1,1.7c-0.7,0.5-1.3,0.6-2,0.6c-1.6,0-2.7-1.2-2.8-2.7c-0.6,1.5-2.3,2.7-4.5,2.7c-2.3,0-3.8-1.4-3.8-3.5c0-2.2,2-3.1,4.8-3.8
		l3.6-0.8v-0.9c0-0.8-0.6-1.7-2.3-1.7c-2,0-3.1,1-3.6,2.3L86.2,303.4z M94.2,306.1l-3,0.7c-1.9,0.5-3,0.9-3,2.3c0,1,0.7,1.9,2.1,1.9
		c2.1,0,4-1.6,4-3.4L94.2,306.1L94.2,306.1z"/>
	<path fill="#010101" d="M103.7,312.6h-2.3v-12.2h2.3v2.4c0.6-1.5,2.2-2.8,4.4-2.8c3.3,0,4.5,2.1,4.5,5v7.6h-2.3v-7.2
		c0-2.1-1-3.4-3-3.4c-2.1,0-3.6,1.6-3.6,4L103.7,312.6L103.7,312.6z"/>
	<path fill="#010101" d="M127.7,309.2c-0.7,2-2.4,3.6-5.5,3.6c-3.7,0-6.3-2.7-6.3-6.4c0-3.7,2.7-6.4,6.4-6.4c2.8,0,4.4,1.4,5.2,3.3
		l-1.9,1.2c-0.5-1.4-1.6-2.6-3.4-2.6c-2.4,0-4.1,1.7-4.1,4.5s1.6,4.5,4,4.5c1.9,0,3-1.2,3.5-2.7L127.7,309.2z"/>
	<path fill="#010101" d="M133.4,302.8c0.6-1.5,2.2-2.8,4.4-2.8c3.3,0,4.5,2.1,4.5,5v7.6h-2.3v-7.2c0-2.1-1-3.4-3-3.4
		c-2.1,0-3.6,1.6-3.6,4v6.6h-2.3V295h2.3L133.4,302.8L133.4,302.8z"/>
	<path fill="#010101" d="M146.6,295h2.7v2.6h-2.7V295z M149,300.4v12.2h-2.3v-12.2H149z"/>
	<path fill="#010101" d="M172.7,310.5v2.1h-13v-1.4l5-4.3c2.8-2.4,4.9-4.2,4.9-6.8c0-2.1-1.3-3.5-3.6-3.5c-2.4,0-3.8,1.5-3.8,4.1
		c0,0.6,0.1,1,0.2,1.6l-2.3-0.1c-0.2-0.6-0.2-1.2-0.2-1.6c0-3.6,2.4-5.9,6.2-5.9c4.1,0,6.1,2.4,6.1,5.4c0,3.1-2.9,5.7-5.4,7.7
		l-3.3,2.8L172.7,310.5L172.7,310.5z"/>
	<path fill="#010101" d="M182.6,312.9c-4.7,0-7.3-3.3-7.3-9.1s2.7-9.1,7.3-9.1c4.7,0,7.3,3.3,7.3,9.1S187.2,312.9,182.6,312.9z
		 M182.6,296.5c-3.3,0-4.8,2.4-4.8,7.2s1.5,7.2,4.8,7.2c3.3,0,4.8-2.4,4.8-7.2S185.8,296.5,182.6,296.5z"/>
	<path fill="#010101" d="M197,312.6v-13.3h-4.7v-1.7h1.3c2.9,0,3.7-0.6,4.3-2.7h1.6v17.7L197,312.6L197,312.6z"/>
	<path fill="#010101" d="M206,306.8c0.1,2.4,1.7,4.2,4.5,4.2c2.4,0,4.1-1.6,4.1-4.2c0-2.3-1.5-4.1-4.1-4.1c-1.7,0-3,0.9-3.7,2
		l-2.3-0.5c0.5-2.6,0.9-6.5,1-9.2H216c0.1,1.4-0.2,2.3-2,2.3c-1.4,0-4.9-0.2-6.6-0.5c0,1-0.5,4.9-0.7,5.8c0.8-1,2.3-2,4.3-2
		c3.8,0,6.1,2.7,6.1,5.9c0,3.6-2.7,6.2-6.5,6.2s-6.5-2.2-6.9-5.6L206,306.8z"/>
	<path fill="#010101" d="M220.2,298.4h2.9v2.9h-2.9V298.4z M220.2,307.2h2.9v2.9h-2.9V307.2z"/>
	<path fill="#010101" d="M240.3,312.6v-15.5h-7.2V295H250v2.1h-7.2v15.5H240.3z"/>
	<path fill="#010101" d="M255.6,302.8c0.6-1.5,2.2-2.8,4.4-2.8c3.3,0,4.5,2.1,4.5,5v7.6h-2.3v-7.2c0-2.1-1-3.4-3-3.4
		c-2.1,0-3.6,1.6-3.6,4v6.6h-2.3V295h2.3L255.6,302.8L255.6,302.8z"/>
	<path fill="#010101" d="M280.1,309.6c-0.9,2.1-2.9,3.4-5.7,3.4c-3.6,0-6.3-2.6-6.3-6.3c0-3.8,2.7-6.6,6.3-6.6c4,0,5.8,2.8,5.8,6.1
		v0.7h-9.8c0,2.7,1.9,4.3,4.1,4.3c2.1,0,3.3-0.9,3.8-2.7L280.1,309.6z M277.8,305.2c-0.1-1.7-1.4-3.4-3.6-3.4
		c-2.2,0-3.6,1.6-3.8,3.4H277.8z"/>
	<path fill="#010101" d="M301.1,305.8h3.1v2h-3.1v4.7h-2.3v-4.7h-9.3v-2.3l8.6-10.6h3V305.8z M291.6,305.8h7.2V297L291.6,305.8z"/>
	<path fill="#010101" d="M308.4,300.4V297l2.3-0.7v4.1h5.2v1.7h-5.2v6.4c0,1.6,1,2.4,2.1,2.4c1.4,0,2.1-0.8,2.8-2.2l1.2,1.6
		c-0.6,1.3-2.1,2.6-4.1,2.6c-2.2,0-4.2-1.4-4.2-4.2v-6.6h-2.6v-1.7H308.4z"/>
	<path fill="#010101" d="M322,302.8c0.6-1.5,2.2-2.8,4.4-2.8c3.3,0,4.5,2.1,4.5,5v7.6h-2.3v-7.2c0-2.1-1-3.4-3-3.4
		c-2.1,0-3.6,1.6-3.6,4v6.6h-2.3V295h2.3L322,302.8L322,302.8z"/>
	<path fill="#010101" d="M344.8,295v17.6h-2.4V295H344.8z"/>
	<path fill="#010101" d="M351.7,312.6h-2.3v-12.2h2.3v2.4c0.6-1.5,2.2-2.8,4.4-2.8c3.3,0,4.5,2.1,4.5,5v7.6h-2.3v-7.2
		c0-2.1-1-3.4-3-3.4c-2.1,0-3.6,1.6-3.6,4L351.7,312.6L351.7,312.6z"/>
	<path fill="#010101" d="M366,300.4V297l2.3-0.7v4.1h5.2v1.7h-5.4v6.4c0,1.6,1,2.4,2.1,2.4c1.4,0,2.1-0.8,2.8-2.2l1.2,1.6
		c-0.6,1.3-2.1,2.6-4.1,2.6c-2.2,0-4.2-1.4-4.2-4.2v-6.6h-2.6v-1.7H366z"/>
	<path fill="#010101" d="M388.4,309.6c-0.9,2.1-2.9,3.4-5.7,3.4c-3.6,0-6.3-2.6-6.3-6.3c0-3.8,2.7-6.6,6.3-6.6c4,0,5.8,2.8,5.8,6.1
		v0.7h-9.8c0,2.7,1.9,4.3,4.1,4.3c2.1,0,3.3-0.9,3.8-2.7L388.4,309.6z M386.3,305.2c-0.1-1.7-1.4-3.4-3.6-3.4
		c-2.2,0-3.6,1.6-3.8,3.4H386.3z"/>
	<path fill="#010101" d="M394.2,306.3v6.2h-2.3v-12.1h2.3v2.9c0.6-1.6,1.9-3.3,4.1-3.3c2.3,0,3.6,1.7,3.6,4c0,0.2,0,0.6-0.1,0.8
		l-2,0.6c0-0.2,0.1-0.6,0.1-0.8c0-1.5-0.7-2.6-2.2-2.6C395.8,302.1,394.2,304,394.2,306.3z"/>
	<path fill="#010101" d="M407.5,312.6h-2.3v-12.2h2.3v2.4c0.6-1.5,2.2-2.8,4.4-2.8c3.3,0,4.5,2.1,4.5,5v7.6h-2.3v-7.2
		c0-2.1-1-3.4-3-3.4c-2.1,0-3.6,1.6-3.6,4L407.5,312.6L407.5,312.6z"/>
	<path fill="#010101" d="M420.2,303.4c0.8-2,2.8-3.4,5.7-3.4c2.8,0,4.4,1.2,4.4,3.6v6.1c0,0.9,0.5,1.3,1,1.3c0.5,0,0.9-0.2,1.4-0.5
		l0.1,1.7c-0.7,0.5-1.3,0.6-2,0.6c-1.6,0-2.7-1.2-2.8-2.7c-0.6,1.5-2.3,2.7-4.5,2.7c-2.3,0-3.8-1.4-3.8-3.5c0-2.2,2-3.1,4.8-3.8
		l3.6-0.8v-0.9c0-0.8-0.6-1.7-2.3-1.7c-2,0-3.1,1-3.6,2.3L420.2,303.4z M428.2,306.1l-3,0.7c-1.9,0.5-3,0.9-3,2.3
		c0,1,0.7,1.9,2.1,1.9c2.1,0,4-1.6,4-3.4L428.2,306.1L428.2,306.1z"/>
	<path fill="#010101" d="M436.2,300.4V297l2.3-0.7v4.1h5.2v1.7h-5.2v6.4c0,1.6,1,2.4,2.1,2.4c1.4,0,2.1-0.8,2.8-2.2l1.2,1.6
		c-0.6,1.3-2.1,2.6-4.1,2.6c-2.2,0-4.2-1.4-4.2-4.2v-6.6h-2.6v-1.7H436.2z"/>
	<path fill="#010101" d="M447.3,295h2.7v2.6h-2.7V295z M449.9,300.4v12.2h-2.3v-12.2H449.9z"/>
	<path fill="#010101" d="M459.8,312.9c-3.6,0-6.4-2.7-6.4-6.4c0-3.8,2.8-6.4,6.4-6.4s6.4,2.7,6.4,6.4S463.4,312.9,459.8,312.9z
		 M459.8,311.1c2.4,0,4.1-1.9,4.1-4.5c0-2.8-1.5-4.7-4.1-4.7c-2.4,0-4.1,1.9-4.1,4.7C455.7,309.2,457.3,311.1,459.8,311.1z"/>
	<path fill="#010101" d="M472,312.6h-2.3v-12.2h2.3v2.4c0.6-1.5,2.2-2.8,4.4-2.8c3.3,0,4.5,2.1,4.5,5v7.6h-2.3v-7.2
		c0-2.1-1-3.4-3-3.4c-2.1,0-3.6,1.6-3.6,4L472,312.6L472,312.6z"/>
	<path fill="#010101" d="M484.8,303.4c0.8-2,2.8-3.4,5.7-3.4c2.8,0,4.4,1.2,4.4,3.6v6.1c0,0.9,0.5,1.3,1,1.3c0.5,0,0.9-0.2,1.4-0.5
		l0.1,1.7c-0.7,0.5-1.3,0.6-2,0.6c-1.6,0-2.7-1.2-2.8-2.7c-0.6,1.5-2.3,2.7-4.5,2.7c-2.3,0-3.8-1.4-3.8-3.5c0-2.2,2-3.1,4.8-3.8
		l3.6-0.8v-0.9c0-0.8-0.6-1.7-2.3-1.7c-2,0-3.1,1-3.6,2.3L484.8,303.4z M492.7,306.1l-3,0.7c-1.9,0.5-3,0.9-3,2.3
		c0,1,0.7,1.9,2.1,1.9c2.1,0,4-1.6,4-3.4L492.7,306.1L492.7,306.1z"/>
	<path fill="#010101" d="M502.3,295v17.6h-2.3V295H502.3z"/>
	<path fill="#010101" d="M519.9,312.6v-15.5h-7.2V295h16.9v2.1h-7.2v15.5H519.9z"/>
	<path fill="#010101" d="M535.2,312.6l-5.5-12.2h2.6l4.1,9.4h0.1l3.6-9.4h2.2l-5.2,13c-0.9,2.3-2.1,4.2-4.4,4.2c-2,0-3-1.3-3.3-2.8
		l1.9-0.9c0,1.3,0.5,2,1.5,2c0.8,0,1.4-0.7,2-2.1L535.2,312.6z"/>
	<path fill="#010101" d="M547.6,317.2h-2.3v-16.9h2.3v2.7c0.6-1.6,2.1-3,4.4-3c3.6,0,5.8,2.8,5.8,6.4s-2.1,6.4-5.8,6.4
		c-2.3,0-3.7-1.3-4.4-2.9V317.2z M547.5,306.8c0,2.7,1.7,4.4,3.8,4.4c2.6,0,4-1.9,4-4.7s-1.5-4.7-4-4.7c-2.1,0-3.8,1.7-3.8,4.3
		V306.8z"/>
	<path fill="#010101" d="M566.8,312.9c-3.6,0-6.4-2.7-6.4-6.4c0-3.8,2.8-6.4,6.4-6.4c3.6,0,6.4,2.7,6.4,6.4S570.4,312.9,566.8,312.9
		z M566.8,311.1c2.4,0,4.1-1.9,4.1-4.5c0-2.8-1.5-4.7-4.1-4.7c-2.4,0-4.1,1.9-4.1,4.7C562.7,309.2,564.4,311.1,566.8,311.1z"/>
	<path fill="#010101" d="M581.8,317.6c-3.4,0-6.4-1-6.4-3.5c0-1.3,1.2-2.3,2.7-2.6c-1.2-0.3-1.7-1.2-1.7-2.1c0-1,0.7-1.9,1.9-2.3
		c-0.9-0.7-1.4-1.7-1.4-3c0-2.6,2.1-4.2,5-4.2c1.4,0,2.7,0.3,3.5,1c0.6-1.2,2-2.2,3.7-2l0.2,2.1c-1.2-0.2-2.6,0.1-3.1,0.8
		c0.5,0.6,0.7,1.4,0.7,2.1c0,2.6-2.1,4.2-5,4.2c-0.9,0-1.9-0.1-2.6-0.5c-0.5,0.2-0.8,0.7-0.8,1.3c0,0.6,0.5,1,1.6,1h4.7
		c2.7,0,4.3,1.3,4.3,3.3C588.8,316.4,585.2,317.6,581.8,317.6z M581.8,316.1c2.7,0,4.8-0.7,4.8-2.4c0-1.2-1.2-1.6-2.7-1.6h-3.8
		c-1.3,0-2.6,0.7-2.6,1.9C577.5,315.4,579.5,316.1,581.8,316.1z M581.7,301.5c-1.5,0-2.8,1-2.8,2.6c0,1.6,1.3,2.7,2.8,2.7
		c1.5,0,2.8-1,2.8-2.7C584.4,302.6,583.2,301.5,581.7,301.5z"/>
	<path fill="#010101" d="M593.9,306.3v6.2h-2.3v-12.1h2.3v2.9c0.6-1.6,1.9-3.3,4.1-3.3c2.3,0,3.6,1.7,3.6,4c0,0.2,0,0.6-0.1,0.8
		l-2,0.6c0-0.2,0.1-0.6,0.1-0.8c0-1.5-0.7-2.6-2.2-2.6C595.6,302.1,593.9,304,593.9,306.3z"/>
	<path fill="#010101" d="M604.2,303.4c0.8-2,2.8-3.4,5.7-3.4c2.8,0,4.4,1.2,4.4,3.6v6.1c0,0.9,0.5,1.3,1,1.3c0.5,0,0.9-0.2,1.4-0.5
		l0.1,1.7c-0.7,0.5-1.3,0.6-2,0.6c-1.6,0-2.7-1.2-2.8-2.7c-0.6,1.5-2.3,2.7-4.5,2.7c-2.3,0-3.8-1.4-3.8-3.5c0-2.2,2-3.1,4.8-3.8
		l3.6-0.8v-0.9c0-0.8-0.6-1.7-2.3-1.7c-2,0-3.1,1-3.6,2.3L604.2,303.4z M612.1,306.1l-3,0.7c-1.9,0.5-3,0.9-3,2.3
		c0,1,0.7,1.9,2.1,1.9c2.1,0,4-1.6,4-3.4L612.1,306.1L612.1,306.1z"/>
	<path fill="#010101" d="M621.7,317.2h-2.3v-16.9h2.3v2.7c0.6-1.6,2.1-3,4.4-3c3.6,0,5.8,2.8,5.8,6.4s-2.1,6.4-5.8,6.4
		c-2.3,0-3.7-1.3-4.4-2.9V317.2z M621.5,306.8c0,2.7,1.7,4.4,3.8,4.4c2.6,0,4-1.9,4-4.7s-1.5-4.7-4-4.7c-2.1,0-3.8,1.7-3.8,4.3
		V306.8z"/>
	<path fill="#010101" d="M637.6,302.8c0.6-1.5,2.2-2.8,4.4-2.8c3.3,0,4.5,2.1,4.5,5v7.6h-2.3v-7.2c0-2.1-1-3.4-3-3.4
		c-2.1,0-3.6,1.6-3.6,4v6.6h-2.3V295h2.3L637.6,302.8L637.6,302.8z"/>
	<path fill="#010101" d="M654.7,312.6l-5.5-12.2h2.6l4.1,9.4h0.1l3.6-9.4h2.2l-5.2,13c-0.9,2.3-2.1,4.2-4.4,4.2c-2,0-3-1.3-3.3-2.8
		l1.9-0.9c0,1.3,0.5,2,1.5,2c0.8,0,1.4-0.7,2-2.1L654.7,312.6z"/>
	<path fill="#010101" d="M686.4,307.7c0,3-2.2,4.9-6.3,4.9h-8.3V295h7.9c4.3,0,6.2,1.9,6.2,4.7c0,2.1-1.7,3.5-3.7,3.7
		C684.4,303.7,686.4,305.2,686.4,307.7z M674.3,302.6h5.7c2.6,0,3.6-1,3.6-2.8c0-1.7-1-2.8-3.6-2.8h-5.7V302.6z M674.3,304.4v6.1
		h5.8c2.6,0,4-1,4-3s-1.4-3.1-4-3.1h-5.8V304.4z"/>
	<path fill="#010101" d="M690.1,295h2.7v2.6h-2.7V295z M692.6,300.4v12.2h-2.3v-12.2H692.6z"/>
	<path fill="#010101" d="M708.2,309.6c-0.9,2.1-2.9,3.4-5.7,3.4c-3.6,0-6.3-2.6-6.3-6.3c0-3.8,2.7-6.6,6.3-6.6c4,0,5.8,2.8,5.8,6.1
		v0.7h-9.8c0,2.7,1.9,4.3,4.1,4.3c2.1,0,3.3-0.9,3.8-2.7L708.2,309.6z M706,305.2c-0.1-1.7-1.4-3.4-3.6-3.4c-2.2,0-3.6,1.6-3.8,3.4
		H706z"/>
	<path fill="#010101" d="M714,312.6h-2.3v-12.2h2.3v2.4c0.6-1.5,2.2-2.8,4.4-2.8c3.3,0,4.5,2.1,4.5,5v7.6h-2.3v-7.2
		c0-2.1-1-3.4-3-3.4c-2.1,0-3.6,1.6-3.6,4L714,312.6L714,312.6z"/>
	<path fill="#010101" d="M729.6,312.6h-2.3v-12.2h2.3v2.4c0.6-1.5,2.2-2.8,4.4-2.8c3.3,0,4.5,2.1,4.5,5v7.6h-2.3v-7.2
		c0-2.1-1-3.4-3-3.4c-2.1,0-3.6,1.6-3.6,4L729.6,312.6L729.6,312.6z"/>
	<path fill="#010101" d="M742.3,303.4c0.8-2,2.8-3.4,5.7-3.4c2.8,0,4.4,1.2,4.4,3.6v6.1c0,0.9,0.5,1.3,1,1.3c0.5,0,0.9-0.2,1.4-0.5
		l0.1,1.7c-0.7,0.5-1.3,0.6-2,0.6c-1.6,0-2.7-1.2-2.8-2.7c-0.6,1.5-2.3,2.7-4.5,2.7c-2.3,0-3.8-1.4-3.8-3.5c0-2.2,2-3.1,4.8-3.8
		l3.6-0.8v-0.9c0-0.8-0.6-1.7-2.3-1.7c-2,0-3.1,1-3.6,2.3L742.3,303.4z M750.4,306.1l-3,0.7c-1.9,0.5-3,0.9-3,2.3
		c0,1,0.7,1.9,2.1,1.9c2.1,0,4-1.6,4-3.4L750.4,306.1L750.4,306.1z"/>
	<path fill="#010101" d="M759.9,295v17.6h-2.3V295H759.9z"/>
	<path fill="#010101" d="M775.4,309.6c-0.9,2.1-2.9,3.4-5.7,3.4c-3.6,0-6.3-2.6-6.3-6.3c0-3.8,2.7-6.6,6.3-6.6c4,0,5.8,2.8,5.8,6.1
		v0.7h-9.8c0,2.7,1.9,4.3,4.1,4.3c2.1,0,3.3-0.9,3.8-2.7L775.4,309.6z M773.3,305.2c-0.1-1.7-1.4-3.4-3.6-3.4
		c-2.2,0-3.6,1.6-3.8,3.4H773.3z"/>
</g>
</svg>
