<?xml version="1.0" encoding="utf-8"?>
<!-- Generator: Adobe Illustrator 18.1.1, SVG Export Plug-In . SVG Version: 6.00 Build 0)  -->
<svg version="1.1" id="Layer_1" xmlns="http://www.w3.org/2000/svg" xmlns:xlink="http://www.w3.org/1999/xlink" x="0px" y="0px"
	 viewBox="-8.5 291 809 30" enable-background="new -8.5 291 809 30" xml:space="preserve">
<g>
	<path fill="#010101" d="M7.7,313v-16.2H0.3v-2.2h17.5v2.2h-7.5V313H7.7z"/>
	<path fill="#010101" d="M23.7,313L18,300.3h2.7l4.3,9.8h0.1l3.8-9.8h2.3l-5.4,13.5c-0.9,2.4-2.2,4.4-4.6,4.4
		c-2.1,0-3.1-1.4-3.4-2.9l2-0.9c0,1.4,0.5,2.1,1.6,2.1c0.8,0,1.5-0.7,2.1-2.2L23.7,313z"/>
	<path fill="#010101" d="M36.5,317.8h-2.4v-17.6h2.4v2.8c0.6-1.7,2.2-3.1,4.6-3.1c3.8,0,6,2.9,6,6.7s-2.2,6.7-6,6.7
		c-2.4,0-3.9-1.4-4.6-3V317.8z M36.4,306.9c0,2.8,1.8,4.6,4,4.6c2.7,0,4.2-2,4.2-4.9s-1.6-4.9-4.2-4.9c-2.2,0-4,1.8-4,4.5V306.9z"/>
	<path fill="#010101" d="M56.6,313.3c-3.8,0-6.7-2.8-6.7-6.7c0-4,2.9-6.7,6.7-6.7c3.8,0,6.7,2.8,6.7,6.7
		C63.4,310.6,60.4,313.3,56.6,313.3z M56.6,311.4c2.5,0,4.3-2,4.3-4.7c0-2.9-1.6-4.9-4.3-4.9c-2.5,0-4.3,2-4.3,4.9
		C52.5,309.4,54,311.4,56.6,311.4z"/>
	<path fill="#010101" d="M69.5,314.6c0,2.2-1,3.5-3.4,3.5c-1,0-2.2-0.3-2.9-0.9l0.6-1.5c0.7,0.5,1.3,0.7,2.1,0.7
		c0.7,0,1.3-0.5,1.3-1.5v-14.8h2.4C69.5,300.3,69.5,314.6,69.5,314.6z M66.7,297.4v-2.7h2.8v2.7H66.7z"/>
	<path fill="#010101" d="M73.4,303.4c0.8-2.1,2.9-3.5,5.9-3.5c2.9,0,4.6,1.3,4.6,3.8v6.4c0,0.9,0.5,1.4,1,1.4c0.5,0,0.9-0.2,1.5-0.5
		l0.1,1.8c-0.7,0.5-1.4,0.6-2.1,0.6c-1.7,0-2.8-1.3-2.9-2.8c-0.6,1.6-2.4,2.8-4.7,2.8c-2.4,0-4-1.5-4-3.6c0-2.3,2.1-3.2,5-4l3.8-0.8
		v-0.9c0-0.8-0.6-1.8-2.4-1.8c-2.1,0-3.2,1-3.8,2.4L73.4,303.4z M81.8,306.2l-3.1,0.7c-2,0.5-3.1,0.9-3.1,2.4c0,1,0.7,2,2.2,2
		c2.2,0,4.2-1.7,4.2-3.5L81.8,306.2L81.8,306.2z"/>
	<path fill="#010101" d="M91.7,313h-2.4v-12.7h2.4v2.5c0.6-1.6,2.3-2.9,4.6-2.9c3.4,0,4.7,2.2,4.7,5.2v7.9h-2.4v-7.5
		c0-2.2-1-3.5-3.1-3.5c-2.2,0-3.8,1.7-3.8,4.2V313L91.7,313z"/>
	<path fill="#010101" d="M116.7,309.4c-0.7,2.1-2.5,3.8-5.7,3.8c-3.9,0-6.6-2.8-6.6-6.7c0-3.9,2.8-6.7,6.7-6.7
		c2.9,0,4.6,1.5,5.4,3.4l-2,1.3c-0.5-1.5-1.7-2.7-3.5-2.7c-2.5,0-4.3,1.8-4.3,4.7s1.7,4.7,4.2,4.7c2,0,3.1-1.3,3.6-2.8L116.7,309.4z
		"/>
	<path fill="#010101" d="M122.6,302.8c0.6-1.6,2.3-2.9,4.6-2.9c3.4,0,4.7,2.2,4.7,5.2v7.9h-2.4v-7.5c0-2.2-1-3.5-3.1-3.5
		c-2.2,0-3.8,1.7-3.8,4.2v6.9h-2.4v-18.3h2.4L122.6,302.8L122.6,302.8z"/>
	<path fill="#010101" d="M136.4,294.6h2.8v2.7h-2.8V294.6z M138.9,300.3V313h-2.4v-12.7H138.9z"/>
	<path fill="#010101" d="M163.6,310.8v2.2H150v-1.5l5.2-4.5c2.9-2.5,5.1-4.4,5.1-7.1c0-2.2-1.4-3.6-3.8-3.6c-2.5,0-4,1.6-4,4.3
		c0,0.6,0.1,1,0.2,1.7l-2.4-0.1c-0.2-0.6-0.2-1.3-0.2-1.7c0-3.8,2.5-6.1,6.5-6.1c4.3,0,6.4,2.5,6.4,5.6c0,3.2-3,5.9-5.6,8l-3.4,2.9
		L163.6,310.8L163.6,310.8z"/>
	<path fill="#010101" d="M173.9,313.3c-4.9,0-7.6-3.4-7.6-9.5c0-6,2.8-9.5,7.6-9.5c4.9,0,7.6,3.4,7.6,9.5
		C181.5,309.9,178.7,313.3,173.9,313.3z M173.9,296.2c-3.4,0-5,2.5-5,7.5c0,5,1.6,7.5,5,7.5s5-2.5,5-7.5
		C178.9,298.7,177.2,296.2,173.9,296.2z"/>
	<path fill="#010101" d="M188.9,313v-13.9H184v-1.8h1.4c3,0,3.9-0.6,4.5-2.8h1.7V313H188.9L188.9,313z"/>
	<path fill="#010101" d="M198.3,306.9c0.1,2.5,1.8,4.4,4.7,4.4c2.5,0,4.3-1.7,4.3-4.4c0-2.4-1.6-4.3-4.3-4.3c-1.8,0-3.1,0.9-3.9,2.1
		l-2.4-0.5c0.5-2.7,0.9-6.8,1-9.6h10.9c0.1,1.5-0.2,2.4-2.1,2.4c-1.5,0-5.1-0.2-6.9-0.5c0,1-0.5,5.1-0.7,6c0.8-1,2.4-2.1,4.5-2.1
		c4,0,6.4,2.8,6.4,6.1c0,3.8-2.8,6.5-6.8,6.5c-4,0-6.8-2.3-7.2-5.8L198.3,306.9z"/>
	<path fill="#010101" d="M213.1,298.2h3v3h-3V298.2z M213.1,307.4h3v3h-3V307.4z"/>
	<path fill="#010101" d="M234,313v-16.2h-7.5v-2.2h17.6v2.2h-7.5V313H234z"/>
	<path fill="#010101" d="M249.9,302.8c0.6-1.6,2.3-2.9,4.6-2.9c3.4,0,4.7,2.2,4.7,5.2v7.9h-2.4v-7.5c0-2.2-1-3.5-3.1-3.5
		c-2.2,0-3.8,1.7-3.8,4.2v6.9h-2.4v-18.3h2.4V302.8L249.9,302.8z"/>
	<path fill="#010101" d="M275.5,309.9c-0.9,2.2-3,3.5-5.9,3.5c-3.8,0-6.6-2.7-6.6-6.6c0-4,2.8-6.9,6.6-6.9c4.2,0,6,2.9,6,6.4v0.7
		h-10.2c0,2.8,2,4.5,4.3,4.5c2.2,0,3.4-0.9,4-2.8L275.5,309.9z M273.1,305.3c-0.1-1.8-1.5-3.5-3.8-3.5c-2.3,0-3.8,1.7-4,3.5H273.1z"
		/>
	<path fill="#010101" d="M297.4,305.9h3.2v2.1h-3.2v4.9H295V308h-9.7v-2.4l9-11h3.1L297.4,305.9L297.4,305.9z M287.5,305.9h7.5v-9.2
		L287.5,305.9z"/>
	<path fill="#010101" d="M305,300.3v-3.5l2.4-0.7v4.3h5.4v1.8h-5.4v6.7c0,1.7,1,2.5,2.2,2.5c1.5,0,2.2-0.8,2.9-2.3l1.3,1.7
		c-0.6,1.4-2.2,2.7-4.3,2.7c-2.3,0-4.4-1.5-4.4-4.4V302h-2.7v-1.8L305,300.3L305,300.3z"/>
	<path fill="#010101" d="M319.1,302.8c0.6-1.6,2.3-2.9,4.6-2.9c3.4,0,4.7,2.2,4.7,5.2v7.9H326v-7.5c0-2.2-1-3.5-3.1-3.5
		c-2.2,0-3.8,1.7-3.8,4.2v6.9h-2.4v-18.3h2.4V302.8L319.1,302.8z"/>
	<path fill="#010101" d="M342.9,294.6V313h-2.5v-18.3H342.9z"/>
	<path fill="#010101" d="M350.1,313h-2.4v-12.7h2.4v2.5c0.6-1.6,2.3-2.9,4.6-2.9c3.4,0,4.7,2.2,4.7,5.2v7.9H357v-7.5
		c0-2.2-1-3.5-3.1-3.5c-2.2,0-3.8,1.7-3.8,4.2V313L350.1,313z"/>
	<path fill="#010101" d="M365,300.3v-3.5l2.4-0.7v4.3h5.4v1.8h-5.6v6.7c0,1.7,1,2.5,2.2,2.5c1.5,0,2.2-0.8,2.9-2.3l1.3,1.7
		c-0.6,1.4-2.2,2.7-4.3,2.7c-2.3,0-4.4-1.5-4.4-4.4V302h-2.7v-1.8L365,300.3L365,300.3z"/>
	<path fill="#010101" d="M388.3,309.9c-0.9,2.2-3,3.5-5.9,3.5c-3.8,0-6.6-2.7-6.6-6.6c0-4,2.8-6.9,6.6-6.9c4.2,0,6,2.9,6,6.4v0.7
		h-10.2c0,2.8,2,4.5,4.3,4.5c2.2,0,3.4-0.9,4-2.8L388.3,309.9z M386.2,305.3c-0.1-1.8-1.5-3.5-3.8-3.5c-2.3,0-3.8,1.7-4,3.5H386.2z"
		/>
	<path fill="#010101" d="M394.4,306.4v6.5H392v-12.6h2.4v3c0.6-1.7,2-3.4,4.3-3.4c2.4,0,3.8,1.8,3.8,4.2c0,0.2,0,0.6-0.1,0.8
		l-2.1,0.6c0-0.2,0.1-0.6,0.1-0.8c0-1.6-0.7-2.7-2.3-2.7C396.1,302,394.4,304,394.4,306.4z"/>
	<path fill="#010101" d="M408.2,313h-2.4v-12.7h2.4v2.5c0.6-1.6,2.3-2.9,4.6-2.9c3.4,0,4.7,2.2,4.7,5.2v7.9h-2.4v-7.5
		c0-2.2-1-3.5-3.1-3.5c-2.2,0-3.8,1.7-3.8,4.2V313L408.2,313z"/>
	<path fill="#010101" d="M421.5,303.4c0.8-2.1,2.9-3.5,5.9-3.5c2.9,0,4.6,1.3,4.6,3.8v6.4c0,0.9,0.5,1.4,1,1.4
		c0.5,0,0.9-0.2,1.5-0.5l0.1,1.8c-0.7,0.5-1.4,0.6-2.1,0.6c-1.7,0-2.8-1.3-2.9-2.8c-0.6,1.6-2.4,2.8-4.7,2.8c-2.4,0-4-1.5-4-3.6
		c0-2.3,2.1-3.2,5-4l3.8-0.8v-0.9c0-0.8-0.6-1.8-2.4-1.8c-2.1,0-3.2,1-3.8,2.4L421.5,303.4z M429.8,306.2l-3.1,0.7
		c-2,0.5-3.1,0.9-3.1,2.4c0,1,0.7,2,2.2,2c2.2,0,4.2-1.7,4.2-3.5L429.8,306.2L429.8,306.2z"/>
	<path fill="#010101" d="M438.2,300.3v-3.5l2.4-0.7v4.3h5.4v1.8h-5.4v6.7c0,1.7,1,2.5,2.2,2.5c1.5,0,2.2-0.8,2.9-2.3l1.3,1.7
		c-0.6,1.4-2.2,2.7-4.3,2.7c-2.3,0-4.4-1.5-4.4-4.4V302h-2.7v-1.8L438.2,300.3L438.2,300.3z"/>
	<path fill="#010101" d="M449.7,294.6h2.8v2.7h-2.8V294.6z M452.4,300.3V313H450v-12.7H452.4z"/>
	<path fill="#010101" d="M462.7,313.3c-3.8,0-6.7-2.8-6.7-6.7c0-4,2.9-6.7,6.7-6.7s6.7,2.8,6.7,6.7S466.5,313.3,462.7,313.3z
		 M462.7,311.4c2.5,0,4.3-2,4.3-4.7c0-2.9-1.6-4.9-4.3-4.9c-2.5,0-4.3,2-4.3,4.9C458.5,309.4,460.1,311.4,462.7,311.4z"/>
	<path fill="#010101" d="M475.5,313h-2.4v-12.7h2.4v2.5c0.6-1.6,2.3-2.9,4.6-2.9c3.4,0,4.7,2.2,4.7,5.2v7.9h-2.4v-7.5
		c0-2.2-1-3.5-3.1-3.5c-2.2,0-3.8,1.7-3.8,4.2V313L475.5,313z"/>
	<path fill="#010101" d="M488.8,303.4c0.8-2.1,2.9-3.5,5.9-3.5c2.9,0,4.6,1.3,4.6,3.8v6.4c0,0.9,0.5,1.4,1,1.4s0.9-0.2,1.5-0.5
		l0.1,1.8c-0.7,0.5-1.4,0.6-2.1,0.6c-1.7,0-2.8-1.3-2.9-2.8c-0.6,1.6-2.4,2.8-4.7,2.8c-2.4,0-4-1.5-4-3.6c0-2.3,2.1-3.2,5-4l3.8-0.8
		v-0.9c0-0.8-0.6-1.8-2.4-1.8c-2.1,0-3.2,1-3.8,2.4L488.8,303.4z M497,306.2l-3.1,0.7c-2,0.5-3.1,0.9-3.1,2.4c0,1,0.7,2,2.2,2
		c2.2,0,4.2-1.7,4.2-3.5L497,306.2L497,306.2z"/>
	<path fill="#010101" d="M507,294.6V313h-2.4v-18.3H507z"/>
	<path fill="#010101" d="M525.4,313v-16.2h-7.5v-2.2h17.6v2.2H528V313H525.4z"/>
	<path fill="#010101" d="M541.3,313l-5.7-12.7h2.7l4.3,9.8h0.1l3.8-9.8h2.3l-5.4,13.5c-0.9,2.4-2.2,4.4-4.6,4.4
		c-2.1,0-3.1-1.4-3.4-2.9l2-0.9c0,1.4,0.5,2.1,1.6,2.1c0.8,0,1.5-0.7,2.1-2.2L541.3,313z"/>
	<path fill="#010101" d="M554.2,317.8h-2.4v-17.6h2.4v2.8c0.6-1.7,2.2-3.1,4.6-3.1c3.8,0,6,2.9,6,6.7s-2.2,6.7-6,6.7
		c-2.4,0-3.9-1.4-4.6-3V317.8z M554.1,306.9c0,2.8,1.8,4.6,4,4.6c2.7,0,4.2-2,4.2-4.9s-1.6-4.9-4.2-4.9c-2.2,0-4,1.8-4,4.5V306.9z"
		/>
	<path fill="#010101" d="M574.3,313.3c-3.8,0-6.7-2.8-6.7-6.7c0-4,2.9-6.7,6.7-6.7s6.7,2.8,6.7,6.7S578,313.3,574.3,313.3z
		 M574.3,311.4c2.5,0,4.3-2,4.3-4.7c0-2.9-1.6-4.9-4.3-4.9c-2.5,0-4.3,2-4.3,4.9C570,309.4,571.8,311.4,574.3,311.4z"/>
	<path fill="#010101" d="M589.9,318.2c-3.5,0-6.7-1-6.7-3.6c0-1.4,1.3-2.4,2.8-2.7c-1.3-0.3-1.8-1.3-1.8-2.2c0-1,0.7-2,2-2.4
		c-0.9-0.7-1.5-1.8-1.5-3.1c0-2.7,2.2-4.4,5.2-4.4c1.5,0,2.8,0.3,3.6,1c0.6-1.3,2.1-2.3,3.9-2.1l0.2,2.2c-1.3-0.2-2.7,0.1-3.2,0.8
		c0.5,0.6,0.7,1.5,0.7,2.2c0,2.7-2.2,4.4-5.2,4.4c-0.9,0-2-0.1-2.7-0.5c-0.5,0.2-0.8,0.7-0.8,1.4c0,0.6,0.5,1,1.7,1h4.9
		c2.8,0,4.5,1.4,4.5,3.4C597.2,316.9,593.4,318.2,589.9,318.2z M589.9,316.6c2.8,0,5-0.7,5-2.5c0-1.3-1.3-1.7-2.8-1.7h-4
		c-1.4,0-2.7,0.7-2.7,2C585.4,315.9,587.5,316.6,589.9,316.6z M589.8,301.4c-1.6,0-2.9,1-2.9,2.7c0,1.7,1.4,2.8,2.9,2.8
		s2.9-1,2.9-2.8C592.6,302.6,591.3,301.4,589.8,301.4z"/>
	<path fill="#010101" d="M602.5,306.4v6.5h-2.4v-12.6h2.4v3c0.6-1.7,2-3.4,4.3-3.4c2.4,0,3.8,1.8,3.8,4.2c0,0.2,0,0.6-0.1,0.8
		l-2.1,0.6c0-0.2,0.1-0.6,0.1-0.8c0-1.6-0.7-2.7-2.3-2.7C604.3,302,602.5,304,602.5,306.4z"/>
	<path fill="#010101" d="M613.2,303.4c0.8-2.1,2.9-3.5,5.9-3.5c2.9,0,4.6,1.3,4.6,3.8v6.4c0,0.9,0.5,1.4,1,1.4s0.9-0.2,1.5-0.5
		l0.1,1.8c-0.7,0.5-1.4,0.6-2.1,0.6c-1.7,0-2.8-1.3-2.9-2.8c-0.6,1.6-2.4,2.8-4.7,2.8c-2.4,0-4-1.5-4-3.6c0-2.3,2.1-3.2,5-4l3.8-0.8
		v-0.9c0-0.8-0.6-1.8-2.4-1.8c-2.1,0-3.2,1-3.8,2.4L613.2,303.4z M621.5,306.2l-3.1,0.7c-2,0.5-3.1,0.9-3.1,2.4c0,1,0.7,2,2.2,2
		c2.2,0,4.2-1.7,4.2-3.5L621.5,306.2L621.5,306.2z"/>
	<path fill="#010101" d="M631.5,317.8h-2.4v-17.6h2.4v2.8c0.6-1.7,2.2-3.1,4.6-3.1c3.8,0,6,2.9,6,6.7s-2.2,6.7-6,6.7
		c-2.4,0-3.9-1.4-4.6-3V317.8z M631.3,306.9c0,2.8,1.8,4.6,4,4.6c2.7,0,4.2-2,4.2-4.9s-1.6-4.9-4.2-4.9c-2.2,0-4,1.8-4,4.5V306.9z"
		/>
	<path fill="#010101" d="M648,302.8c0.6-1.6,2.3-2.9,4.6-2.9c3.4,0,4.7,2.2,4.7,5.2v7.9h-2.4v-7.5c0-2.2-1-3.5-3.1-3.5
		c-2.2,0-3.8,1.7-3.8,4.2v6.9h-2.4v-18.3h2.4L648,302.8L648,302.8z"/>
	<path fill="#010101" d="M665.9,313l-5.7-12.7h2.7l4.3,9.8h0.1l3.8-9.8h2.3l-5.4,13.5c-0.9,2.4-2.2,4.4-4.6,4.4
		c-2.1,0-3.1-1.4-3.4-2.9l2-0.9c0,1.4,0.5,2.1,1.6,2.1c0.8,0,1.5-0.7,2.1-2.2L665.9,313z"/>
	<path fill="#010101" d="M698.9,307.9c0,3.1-2.3,5.1-6.6,5.1h-8.6v-18.3h8.2c4.5,0,6.5,2,6.5,4.9c0,2.2-1.8,3.6-3.9,3.9
		C696.8,303.7,698.9,305.3,698.9,307.9z M686.3,302.6h5.9c2.7,0,3.8-1,3.8-2.9c0-1.8-1-2.9-3.8-2.9h-5.9V302.6z M686.3,304.4v6.4h6
		c2.7,0,4.2-1,4.2-3.1c0-2.1-1.5-3.2-4.2-3.2H686.3L686.3,304.4z"/>
	<path fill="#010101" d="M702.7,294.6h2.8v2.7h-2.8V294.6z M705.3,300.3V313H703v-12.7H705.3z"/>
	<path fill="#010101" d="M721.6,309.9c-0.9,2.2-3,3.5-5.9,3.5c-3.8,0-6.6-2.7-6.6-6.6c0-4,2.8-6.9,6.6-6.9c4.2,0,6,2.9,6,6.4v0.7
		h-10.2c0,2.8,2,4.5,4.3,4.5c2.2,0,3.4-0.9,4-2.8L721.6,309.9z M719.3,305.3c-0.1-1.8-1.5-3.5-3.8-3.5c-2.3,0-3.8,1.7-4,3.5H719.3z"
		/>
	<path fill="#010101" d="M727.7,313h-2.4v-12.7h2.4v2.5c0.6-1.6,2.3-2.9,4.6-2.9c3.4,0,4.7,2.2,4.7,5.2v7.9h-2.4v-7.5
		c0-2.2-1-3.5-3.1-3.5c-2.2,0-3.8,1.7-3.8,4.2L727.7,313L727.7,313z"/>
	<path fill="#010101" d="M743.9,313h-2.4v-12.7h2.4v2.5c0.6-1.6,2.3-2.9,4.6-2.9c3.4,0,4.7,2.2,4.7,5.2v7.9h-2.4v-7.5
		c0-2.2-1-3.5-3.1-3.5c-2.2,0-3.8,1.7-3.8,4.2L743.9,313L743.9,313z"/>
	<path fill="#010101" d="M757.1,303.4c0.8-2.1,2.9-3.5,5.9-3.5c2.9,0,4.6,1.3,4.6,3.8v6.4c0,0.9,0.5,1.4,1,1.4s0.9-0.2,1.5-0.5
		l0.1,1.8c-0.7,0.5-1.4,0.6-2.1,0.6c-1.7,0-2.8-1.3-2.9-2.8c-0.6,1.6-2.4,2.8-4.7,2.8c-2.4,0-4-1.5-4-3.6c0-2.3,2.1-3.2,5-4l3.8-0.8
		v-0.9c0-0.8-0.6-1.8-2.4-1.8c-2.1,0-3.2,1-3.8,2.4L757.1,303.4z M765.6,306.2l-3.1,0.7c-2,0.5-3.1,0.9-3.1,2.4c0,1,0.7,2,2.2,2
		c2.2,0,4.2-1.7,4.2-3.5L765.6,306.2L765.6,306.2z"/>
	<path fill="#010101" d="M775.5,294.6V313h-2.4v-18.3H775.5z"/>
	<path fill="#010101" d="M791.6,309.9c-0.9,2.2-3,3.5-5.9,3.5c-3.8,0-6.6-2.7-6.6-6.6c0-4,2.8-6.9,6.6-6.9c4.2,0,6,2.9,6,6.4v0.7
		h-10.2c0,2.8,2,4.5,4.3,4.5c2.2,0,3.4-0.9,4-2.8L791.6,309.9z M789.4,305.3c-0.1-1.8-1.5-3.5-3.8-3.5c-2.3,0-3.8,1.7-4,3.5H789.4z"
		/>
</g>
</svg>
