<?xml version="1.0" encoding="utf-8"?>
<!-- Generator: Adobe Illustrator 18.1.1, SVG Export Plug-In . SVG Version: 6.00 Build 0)  -->
<svg version="1.1" id="Layer_1" xmlns="http://www.w3.org/2000/svg" xmlns:xlink="http://www.w3.org/1999/xlink" x="0px" y="0px"
	 viewBox="56 286 680 40" enable-background="new 56 286 680 40" xml:space="preserve">
<g>
	<polygon fill="#FFFFFF" points="74.2,313 74.2,299.7 68.1,299.7 68.1,294.9 85.5,294.9 85.5,299.7 79.3,299.7 79.3,313 	"/>
	<path fill="#FFFFFF" d="M86.7,317.3c-2.3,0-4-1.5-4.2-3.7l-0.1-1l4.4-2.3l-4.9-10.8h5.5l2.5,5.7l2.2-5.7h5.2L92,312.7
		C91.3,314.3,90,317.3,86.7,317.3z M87.1,311.9l0.2-0.5l-0.2-0.4V311.9z"/>
	<path fill="#FFFFFF" d="M96,317v-17.5h5v0.2c0.7-0.3,1.5-0.5,2.3-0.5c3.8,0,6.5,2.9,6.5,7s-2.7,7-6.5,7c-0.8,0-1.6-0.2-2.3-0.4v4.2
		L96,317L96,317z M102.7,303.8c-1.1,0-1.8,0.9-1.8,2.2v0.5c0,1.3,0.7,2.3,1.8,2.3c1.6,0,1.9-1.4,1.9-2.5S104.3,303.8,102.7,303.8z"
		/>
	<path fill="#FFFFFF" d="M116,313.3c-4,0-7-3-7-7s3-7,7-7s7,3,7,7C123.1,310.2,120,313.3,116,313.3z M116,303.8c-1.8,0-2,1.7-2,2.5
		c0,0.7,0.2,2.4,2,2.4s2-1.7,2-2.4C118,305.5,117.8,303.8,116,303.8z"/>
	<path fill="#FFFFFF" d="M123.8,317.3c-1.1,0-2.4-0.4-3.2-1.1l-0.9-0.7l1.6-4l1.5,1c0.1,0.1,0.2,0.1,0.3,0.2V300H123v-5.2h5.3v5.2
		h-0.1v12.9C128.1,315.6,126.4,317.3,123.8,317.3z"/>
	<path fill="#FFFFFF" d="M139.2,313.2c-1.1,0-2-0.4-2.7-1.1c-1,0.7-2.2,1.1-3.6,1.1c-2.8,0-4.8-1.9-4.8-4.5c0-1.7,0.8-2.7,1.9-3.4
		l-2-0.7l0.7-1.5c1.1-2.4,3.4-3.8,6.3-3.8c3.3,0,5.3,1.8,5.3,4.6v4.5l1.9-1.2l0.4,4.9l-0.8,0.5C140.8,313,140.1,313.2,139.2,313.2z
		 M133,308.6c0,0,0.1,0,0.3,0c0.7,0,1.4-0.4,1.7-0.8l-0.6,0.1c-1.1,0.3-1.4,0.5-1.5,0.5C133,308.6,133,308.6,133,308.6z"/>
	<path fill="#FFFFFF" d="M149.2,313v-7.7c0-1.3-0.6-1.4-1.1-1.4c-1,0-1.6,0.8-1.6,1.9v7.2h-5v-13.5h5v0.2c0.7-0.3,1.5-0.5,2.3-0.5
		c3.4,0,5.4,2.2,5.4,5.8v8H149.2z"/>
	<path fill="#FFFFFF" d="M160.8,313.3c-4,0-6.9-3-6.9-7c0-4.1,2.9-7,7-7c2.8,0,4.9,1.4,5.9,3.8l0.5,1.2l-3.3,2l3.4,1.7l-0.4,1.2
		C166.1,311.7,163.7,313.3,160.8,313.3z M160.9,303.8c-1.7,0-2,1.5-2,2.4c0,0.7,0.2,2.4,1.9,2.4c0.5,0,1.2-0.1,1.6-1.3l0.4-1.2
		l-0.4-1.2C162,303.8,161.2,303.8,160.9,303.8z"/>
	<path fill="#FFFFFF" d="M174.6,313v-7.7c0-1.3-0.6-1.4-1.1-1.4c-1,0-1.6,0.8-1.6,1.9v7.2h-5v-18.1h5v4.8c0.7-0.3,1.5-0.5,2.3-0.5
		c3.4,0,5.4,2.2,5.4,5.8v8L174.6,313L174.6,313z"/>
	<polygon fill="#FFFFFF" points="180.3,313 180.3,300.1 180.2,300.1 180.2,294.9 185.5,294.9 185.5,300.1 185.3,300.1 185.3,313 	
		"/>
	<path fill="#FFFFFF" d="M191.4,313v-3.4l4.8-4.1c2.4-2,3.7-3.2,3.7-4.7c0-1-0.5-1.5-1.6-1.5c-0.9,0-1.8,0.2-1.8,2
		c0,0.3,0,0.6,0.1,0.8l0.8,2.1l-5.3-0.3l-0.3-1c-0.2-0.6-0.3-1.3-0.3-1.9c0-3.9,2.7-6.6,6.8-6.6c4.6,0,6.7,3.1,6.7,6.1
		c0,3.3-2.7,5.8-4.8,7.5h5.2v4.8h-14V313z"/>
	<path fill="#FFFFFF" d="M212.6,313.3c-4.9,0-7.8-3.5-7.8-9.3s2.9-9.3,7.8-9.3c4.9,0,7.8,3.5,7.8,9.3S217.5,313.3,212.6,313.3z
		 M212.6,299.2c-0.8,0-2.6,0-2.6,4.7s1.8,4.7,2.6,4.7s2.6,0,2.6-4.7C215.2,299.2,213.5,299.2,212.6,299.2z"/>
	<path fill="#FFFFFF" d="M223.5,313v-11.4h-4V297h2.6c1.9,0,2-0.1,2.2-1.1l0.3-1.1h4V313H223.5z"/>
	<path fill="#FFFFFF" d="M236.5,313.3c-4.1,0-7.1-2.5-7.4-6.2l-0.1-1.3l1-0.2l-0.4-0.1l0.2-1.5c0.4-2.2,0.8-5.6,0.8-7.7v-1.5h11.8
		l0.1,1.3c0.1,1.1-0.1,2-0.7,2.7c-0.6,0.6-1.4,1-2.5,1c-0.7,0-2.2-0.1-4.4-0.2c0,0.2,0,0.3-0.1,0.5c0.6-0.2,1.2-0.2,1.9-0.2
		c3.9,0,6.7,2.7,6.7,6.6C243.6,310.4,240.6,313.3,236.5,313.3z M234.2,306.5c0,1.4,0.9,2.1,2.4,2.1c1.8,0,2-1.3,2-2.2
		c0-0.6-0.2-2-2-2c-1.2,0-1.8,0.7-2,1l-0.5,0.8L234.2,306.5z"/>
	<path fill="#FFFFFF" d="M243.4,311v-5.5h5.5v5.5H243.4z M243.4,303.4v-5.5h5.5v5.5H243.4z"/>
	<polygon fill="#FFFFFF" points="260.7,313 260.7,299.7 254.5,299.7 254.5,294.9 272,294.9 272,299.7 265.8,299.7 265.8,313 	"/>
	<path fill="#FFFFFF" d="M279.5,313v-7.7c0-1.3-0.6-1.4-1.1-1.4c-1,0-1.6,0.8-1.6,1.9v7.2h-5v-18.1h5v4.8c0.7-0.3,1.5-0.5,2.3-0.5
		c3.4,0,5.4,2.2,5.4,5.8v8L279.5,313L279.5,313z"/>
	<path fill="#FFFFFF" d="M291.4,313.3c-4,0-6.9-2.9-6.9-6.9c0-4.1,2.9-7.2,6.9-7.2c3.8,0,6.5,2.7,6.5,6.7v2.1h-0.1l0.5,0.3l-0.6,1.2
		C296.5,311.9,294.3,313.3,291.4,313.3z M289.9,308c0.4,0.5,1,0.7,1.6,0.7c0.8,0,1.3-0.2,1.6-0.7H289.9z"/>
	<path fill="#FFFFFF" d="M310.9,313v-4h-8v-4l8.2-10h4.8v9.4h2.7v4.7h-2.7v4h-5V313z M310.9,304.2v-1.9l-1.6,1.9H310.9z"/>
	<path fill="#FFFFFF" d="M324.2,313.3c-3,0-5.1-2.1-5.1-5.1V304h-2.2v-4.5h2.2V297l5-1.5v4h4.5v4.5H324v4c0,0.6,0.2,0.6,0.3,0.6
		c0.3,0,0.5,0,1-1.1l1.1-2.2l3,4.1l-0.4,0.8C328.4,311.7,326.6,313.3,324.2,313.3z"/>
	<path fill="#FFFFFF" d="M336.5,313v-7.7c0-1.3-0.6-1.4-1.1-1.4c-1,0-1.6,0.8-1.6,1.9v7.2h-5v-18.1h5v4.8c0.7-0.3,1.5-0.5,2.3-0.5
		c3.4,0,5.4,2.2,5.4,5.8v8L336.5,313L336.5,313z"/>
	<rect x="348.3" y="294.9" fill="#FFFFFF" width="5.1" height="18.1"/>
	<path fill="#FFFFFF" d="M362.1,313v-7.7c0-1.3-0.6-1.4-1.1-1.4c-1,0-1.6,0.8-1.6,1.9v7.2h-5v-13.5h5v0.2c0.7-0.3,1.5-0.5,2.3-0.5
		c3.4,0,5.4,2.2,5.4,5.8v8H362.1z"/>
	<path fill="#FFFFFF" d="M373.7,313.3c-3,0-5.1-2.1-5.1-5.1V304h-2.2v-4.5h2.2V297l5-1.5v4h4.5v4.5h-4.5v4c0,0.6,0.2,0.6,0.3,0.6
		c0.3,0,0.5,0,1-1.1l1.1-2.2l3,4.1l-0.4,0.8C377.9,311.7,376.1,313.3,373.7,313.3z"/>
	<path fill="#FFFFFF" d="M384.4,313.3c-4,0-6.9-2.9-6.9-6.9c0-4.1,2.9-7.2,6.9-7.2c3.8,0,6.5,2.7,6.5,6.7v2.1h-0.1l0.5,0.3l-0.6,1.2
		C389.6,311.9,387.4,313.3,384.4,313.3z M382.9,308c0.4,0.5,1,0.7,1.6,0.7c0.8,0,1.3-0.2,1.6-0.7H382.9z"/>
	<path fill="#FFFFFF" d="M390.8,313v-13.5h5v0.1c0.6-0.3,1.3-0.4,2-0.4c2.7,0,4.6,2,4.6,4.9c0,0.2,0,0.8-0.2,1.2L402,306l-4.9,1.5
		l0.6-2.6c0-0.1,0.1-0.3,0.1-0.4c0-0.4-0.1-0.6-0.1-0.6s-0.1,0-0.3,0c-0.8,0-1.5,1-1.5,2.2v6.8h-5.1V313z"/>
	<path fill="#FFFFFF" d="M409.9,313v-7.7c0-1.3-0.6-1.4-1.1-1.4c-1,0-1.6,0.8-1.6,1.9v7.2h-5v-13.5h5v0.2c0.7-0.3,1.5-0.5,2.3-0.5
		c3.4,0,5.4,2.2,5.4,5.8v8H409.9z"/>
	<path fill="#FFFFFF" d="M425.9,313.2c-1.1,0-2-0.4-2.7-1.1c-1,0.7-2.2,1.1-3.6,1.1c-2.8,0-4.8-1.9-4.8-4.5c0-1.7,0.8-2.7,1.9-3.4
		l-2-0.7l0.7-1.5c1.1-2.4,3.4-3.8,6.3-3.8c3.3,0,5.3,1.8,5.3,4.6v4.5l1.9-1.2l0.4,4.9l-0.8,0.5C427.5,313,426.8,313.2,425.9,313.2z
		 M419.7,308.6c0,0,0.1,0,0.3,0c0.7,0,1.4-0.4,1.7-0.8l-0.6,0.1c-1.1,0.3-1.4,0.5-1.5,0.5C419.7,308.6,419.7,308.6,419.7,308.6z"/>
	<path fill="#FFFFFF" d="M434,313.3c-3,0-5.1-2.1-5.1-5.1V304h-2.2v-4.5h2.2V297l5-1.5v4h4.5v4.5h-4.5v4c0,0.6,0.2,0.6,0.3,0.6
		c0.3,0,0.5,0,1-1.1l1.1-2.2l3,4.1l-0.4,0.8C438.2,311.7,436.4,313.3,434,313.3z"/>
	<polygon fill="#FFFFFF" points="438.6,313 438.6,300.1 438.4,300.1 438.4,294.9 443.7,294.9 443.7,300.1 443.6,300.1 443.6,313 	
		"/>
	<path fill="#FFFFFF" d="M450.6,313.3c-4,0-7-3-7-7s3-7,7-7s7,3,7,7C457.6,310.2,454.6,313.3,450.6,313.3z M450.6,303.8
		c-1.8,0-2,1.7-2,2.5c0,0.7,0.2,2.4,2,2.4s2-1.7,2-2.4C452.6,305.5,452.4,303.8,450.6,303.8z"/>
	<path fill="#FFFFFF" d="M465.4,313v-7.7c0-1.3-0.6-1.4-1.1-1.4c-1,0-1.6,0.8-1.6,1.9v7.2h-5v-13.5h5v0.2c0.7-0.3,1.5-0.5,2.3-0.5
		c3.4,0,5.4,2.2,5.4,5.8v8H465.4z"/>
	<path fill="#FFFFFF" d="M481.4,313.2c-1.1,0-2-0.4-2.7-1.1c-1,0.7-2.2,1.1-3.6,1.1c-2.8,0-4.8-1.9-4.8-4.5c0-1.7,0.8-2.7,1.9-3.4
		l-2-0.7l0.7-1.5c1.1-2.4,3.4-3.8,6.3-3.8c3.3,0,5.3,1.8,5.3,4.6v4.5l1.9-1.2l0.4,4.9l-0.8,0.5C483,313,482.3,313.2,481.4,313.2z
		 M475.2,308.6c0,0,0.1,0,0.3,0c0.7,0,1.4-0.4,1.7-0.8l-0.6,0.1c-1.1,0.3-1.4,0.5-1.5,0.5C475.2,308.6,475.2,308.6,475.2,308.6z"/>
	<rect x="483.6" y="294.9" fill="#FFFFFF" width="5" height="18.1"/>
	<polygon fill="#FFFFFF" points="500.7,313 500.7,299.7 494.5,299.7 494.5,294.9 512,294.9 512,299.7 505.8,299.7 505.8,313 	"/>
	<path fill="#FFFFFF" d="M513.2,317.3c-2.3,0-4-1.5-4.2-3.7l-0.1-1l4.4-2.3l-4.9-10.8h5.5l2.5,5.7l2.2-5.7h5.2l-5.3,13.2
		C517.7,314.3,516.5,317.3,513.2,317.3z M513.6,311.9l0.2-0.5l-0.2-0.4V311.9z"/>
	<path fill="#FFFFFF" d="M522.5,317v-17.5h5v0.2c0.7-0.3,1.5-0.5,2.3-0.5c3.8,0,6.5,2.9,6.5,7s-2.7,7-6.5,7c-0.8,0-1.6-0.2-2.3-0.4
		v4.2L522.5,317L522.5,317z M529.2,303.8c-1.1,0-1.8,0.9-1.8,2.2v0.5c0,1.3,0.7,2.3,1.8,2.3c1.6,0,1.9-1.4,1.9-2.5
		S530.8,303.8,529.2,303.8z"/>
	<path fill="#FFFFFF" d="M542.5,313.3c-4,0-7-3-7-7s3-7,7-7s7,3,7,7C549.5,310.2,546.5,313.3,542.5,313.3z M542.5,303.8
		c-1.8,0-2,1.7-2,2.5c0,0.7,0.2,2.4,2,2.4s2-1.7,2-2.4C544.5,305.5,544.3,303.8,542.5,303.8z"/>
	<path fill="#FFFFFF" d="M555.4,317.3c-4.3,0-7-1.7-7-4.5c0-1,0.4-1.9,1.1-2.5c-0.2-0.4-0.3-1-0.3-1.5c0-0.9,0.3-1.6,0.9-2.3
		c-0.4-0.7-0.6-1.5-0.6-2.3c0-3,2.4-5.1,5.8-5.1c0.9,0,1.8,0.2,2.6,0.5c0.9-0.8,2-1.3,3.2-1.3c0.2,0,0.4,0,0.7,0l1.1,0.2l0.6,5
		l-2-0.4c-0.1,0-0.2,0-0.3,0s-0.1,0-0.2,0c0.1,0.4,0.1,0.8,0.1,1.1c0,1.6-0.7,2.9-1.8,3.8c2.2,0.5,3.5,2,3.5,4.1
		C562.9,315.3,559.9,317.3,555.4,317.3z M553.3,312.6c0.2,0.1,0.8,0.4,2.1,0.4s2.1-0.2,2.4-0.4c-0.1,0-0.3,0-0.6,0h-3.3
		C553.6,312.5,553.4,312.6,553.3,312.6z M555.3,303.5c-0.2,0-0.9,0.1-0.9,0.7c0,0.7,0.7,0.8,0.9,0.8c0.3,0,0.9-0.1,0.9-0.8
		C556.1,303.6,555.5,303.5,555.3,303.5z"/>
	<path fill="#FFFFFF" d="M562.3,313v-13.5h5v0.1c0.6-0.3,1.3-0.4,2-0.4c2.7,0,4.6,2,4.6,4.9c0,0.3,0,0.8-0.2,1.2l-0.3,0.7l-4.9,1.5
		l0.6-2.6c0-0.1,0.1-0.3,0.1-0.4c0-0.4-0.1-0.6-0.1-0.6s-0.1,0-0.3,0c-0.8,0-1.5,1-1.5,2.2v6.8L562.3,313L562.3,313z"/>
	<path fill="#FFFFFF" d="M583.8,313.2c-1.1,0-2-0.4-2.7-1.1c-1,0.7-2.2,1.1-3.6,1.1c-2.8,0-4.8-1.9-4.8-4.5c0-1.7,0.8-2.7,1.9-3.4
		l-2-0.7l0.7-1.5c1.1-2.4,3.4-3.8,6.3-3.8c3.3,0,5.3,1.8,5.3,4.6v4.5l1.9-1.2l0.4,4.9l-0.8,0.5C585.5,313,584.7,313.2,583.8,313.2z
		 M577.7,308.6c0,0,0.1,0,0.3,0c0.7,0,1.4-0.4,1.7-0.8l-0.6,0.1c-1.1,0.3-1.4,0.5-1.5,0.5C577.7,308.6,577.7,308.6,577.7,308.6z"/>
	<path fill="#FFFFFF" d="M586.1,317v-17.5h5v0.2c0.7-0.3,1.5-0.5,2.3-0.5c3.8,0,6.5,2.9,6.5,7s-2.7,7-6.5,7c-0.8,0-1.6-0.2-2.3-0.4
		v4.2L586.1,317L586.1,317z M592.8,303.8c-1.1,0-1.8,0.9-1.8,2.2v0.5c0,1.3,0.7,2.3,1.8,2.3c1.6,0,1.9-1.4,1.9-2.5
		S594.4,303.8,592.8,303.8z"/>
	<path fill="#FFFFFF" d="M607.5,313v-7.7c0-1.3-0.6-1.4-1.1-1.4c-1,0-1.6,0.8-1.6,1.9v7.2h-5v-18.1h5v4.8c0.7-0.3,1.5-0.5,2.3-0.5
		c3.4,0,5.4,2.2,5.4,5.8v8L607.5,313L607.5,313z"/>
	<path fill="#FFFFFF" d="M615.8,317.3c-2.3,0-4-1.5-4.2-3.7l-0.1-1l4.4-2.3l-4.9-10.8h5.5l2.5,5.7l2.2-5.7h5.2l-5.3,13.2
		C620.3,314.3,619.1,317.3,615.8,317.3z M616.1,311.9l0.2-0.5l-0.2-0.4V311.9z"/>
	<path fill="#FFFFFF" d="M631.2,313v-18.1h8.3c6.1,0,6.8,3.9,6.8,5.5c0,1.2-0.5,2.3-1.3,3.1c1.1,0.9,1.7,2.3,1.7,3.8
		c0,3.5-2.6,5.7-6.9,5.7H631.2z M639.8,308.2c1.9,0,1.9-0.7,1.9-1.1s0-1.2-1.9-1.2h-3.5v2.2h3.5V308.2z M639.6,301.4
		c1.6,0,1.6-0.5,1.6-0.9s0-0.9-1.6-0.9h-3.4v1.8H639.6z"/>
	<polygon fill="#FFFFFF" points="647,313 647,300.1 646.9,300.1 646.9,294.9 652.2,294.9 652.2,300.1 652,300.1 652,313 	"/>
	<path fill="#FFFFFF" d="M659,313.3c-4,0-6.9-2.9-6.9-6.9c0-4.1,2.9-7.2,6.9-7.2c3.8,0,6.5,2.7,6.5,6.7v2.1h-0.1l0.5,0.3l-0.6,1.2
		C664.1,311.9,661.9,313.3,659,313.3z M657.4,308c0.4,0.5,1,0.7,1.6,0.7c0.8,0,1.3-0.2,1.6-0.7H657.4z"/>
	<path fill="#FFFFFF" d="M673.1,313v-7.7c0-1.3-0.6-1.4-1.1-1.4c-1,0-1.6,0.8-1.6,1.9v7.2h-5v-13.5h5v0.2c0.7-0.3,1.5-0.5,2.3-0.5
		c3.4,0,5.4,2.2,5.4,5.8v8H673.1z"/>
	<path fill="#FFFFFF" d="M686.5,313v-7.7c0-1.3-0.6-1.4-1.1-1.4c-1,0-1.6,0.8-1.6,1.9v7.2h-5v-13.5h5v0.2c0.7-0.3,1.5-0.5,2.3-0.5
		c3.4,0,5.4,2.2,5.4,5.8v8H686.5z"/>
	<path fill="#FFFFFF" d="M702.5,313.2c-1.1,0-2-0.4-2.7-1.1c-1,0.7-2.2,1.1-3.6,1.1c-2.8,0-4.8-1.9-4.8-4.5c0-1.7,0.8-2.7,1.9-3.4
		l-2-0.7l0.7-1.5c1.1-2.4,3.4-3.8,6.3-3.8c3.3,0,5.3,1.8,5.3,4.6v4.5l1.9-1.2l0.4,4.9l-0.8,0.5C704.1,313,703.4,313.2,702.5,313.2z
		 M696.4,308.6c0,0,0.1,0,0.3,0c0.7,0,1.4-0.4,1.7-0.8l-0.6,0.1c-1.1,0.3-1.4,0.5-1.5,0.5C696.3,308.6,696.4,308.6,696.4,308.6z"/>
	<rect x="704.8" y="294.9" fill="#FFFFFF" width="5" height="18.1"/>
	<path fill="#FFFFFF" d="M716.7,313.3c-4,0-6.9-2.9-6.9-6.9c0-4.1,2.9-7.2,6.9-7.2c3.8,0,6.5,2.7,6.5,6.7v2.1h-0.1l0.5,0.3l-0.6,1.2
		C721.9,311.9,719.7,313.3,716.7,313.3z M715.2,308c0.4,0.5,1,0.7,1.6,0.7c0.8,0,1.3-0.2,1.6-0.7H715.2z"/>
	<path fill="#010101" d="M75.7,311.5v-13.3h-6.1v-1.8H84v1.8h-6.2v13.3H75.7z"/>
	<path fill="#010101" d="M88.9,311.5L84.2,301h2.2l3.5,8.1H90l3.1-8.1H95l-4.5,11.2c-0.8,2-1.8,3.6-3.8,3.6c-1.7,0-2.6-1.1-2.8-2.4
		l1.6-0.8c0,1.1,0.4,1.7,1.3,1.7c0.7,0,1.2-0.6,1.7-1.8L88.9,311.5z"/>
	<path fill="#010101" d="M99.5,315.5h-2V301h2v2.3c0.5-1.4,1.8-2.6,3.8-2.6c3.1,0,5,2.4,5,5.5s-1.8,5.5-5,5.5c-2,0-3.2-1.1-3.8-2.5
		V315.5z M99.4,306.5c0,2.3,1.5,3.8,3.3,3.8c2.2,0,3.4-1.6,3.4-4s-1.3-4-3.4-4c-1.8,0-3.3,1.5-3.3,3.7V306.5z"/>
	<path fill="#010101" d="M116,311.8c-3.1,0-5.5-2.3-5.5-5.5c0-3.3,2.4-5.5,5.5-5.5s5.5,2.3,5.5,5.5
		C121.6,309.5,119.1,311.8,116,311.8z M116,310.2c2.1,0,3.5-1.6,3.5-3.9c0-2.4-1.3-4-3.5-4c-2.1,0-3.5,1.6-3.5,4
		C112.6,308.6,113.9,310.2,116,310.2z"/>
	<path fill="#010101" d="M126.6,312.9c0,1.8-0.9,2.9-2.8,2.9c-0.9,0-1.8-0.3-2.4-0.8l0.5-1.2c0.6,0.4,1,0.6,1.7,0.6
		c0.6,0,1-0.4,1-1.2V301h2C126.6,301,126.6,312.9,126.6,312.9z M124.4,298.6v-2.2h2.3v2.2H124.4z"/>
	<path fill="#010101" d="M129.9,303.6c0.7-1.7,2.4-2.9,4.9-2.9c2.4,0,3.8,1,3.8,3.1v5.2c0,0.8,0.4,1.1,0.9,1.1
		c0.4,0,0.8-0.2,1.2-0.4l0.1,1.5c-0.6,0.4-1.1,0.5-1.7,0.5c-1.4,0-2.3-1-2.4-2.3c-0.5,1.3-2,2.3-3.9,2.3c-2,0-3.3-1.2-3.3-3
		c0-1.9,1.7-2.7,4.1-3.3l3.1-0.7v-0.8c0-0.7-0.5-1.5-2-1.5c-1.7,0-2.7,0.9-3.1,2L129.9,303.6z M136.7,305.9l-2.6,0.6
		c-1.6,0.4-2.6,0.8-2.6,2c0,0.9,0.6,1.6,1.8,1.6c1.8,0,3.4-1.4,3.4-2.9L136.7,305.9L136.7,305.9z"/>
	<path fill="#010101" d="M144.9,311.5h-2V301h2v2.1c0.5-1.3,1.9-2.4,3.8-2.4c2.8,0,3.9,1.8,3.9,4.3v6.5h-2v-6.2
		c0-1.8-0.9-2.9-2.6-2.9c-1.8,0-3.1,1.4-3.1,3.4L144.9,311.5L144.9,311.5z"/>
	<path fill="#010101" d="M165.5,308.6c-0.6,1.7-2.1,3.1-4.7,3.1c-3.2,0-5.4-2.3-5.4-5.5s2.3-5.5,5.5-5.5c2.4,0,3.8,1.2,4.5,2.8
		l-1.6,1c-0.4-1.2-1.4-2.2-2.9-2.2c-2.1,0-3.5,1.5-3.5,3.9s1.4,3.9,3.4,3.9c1.6,0,2.6-1,3-2.3L165.5,308.6z"/>
	<path fill="#010101" d="M170.4,303.1c0.5-1.3,1.9-2.4,3.8-2.4c2.8,0,3.9,1.8,3.9,4.3v6.5h-2v-6.2c0-1.8-0.9-2.9-2.6-2.9
		c-1.8,0-3.1,1.4-3.1,3.4v5.7h-2v-15.1h2L170.4,303.1L170.4,303.1z"/>
	<path fill="#010101" d="M181.7,296.4h2.3v2.2h-2.3V296.4z M183.8,301v10.5h-2V301H183.8z"/>
	<path fill="#010101" d="M204.1,309.7v1.8h-11.2v-1.2l4.3-3.7c2.4-2.1,4.2-3.6,4.2-5.8c0-1.8-1.1-3-3.1-3c-2.1,0-3.3,1.3-3.3,3.5
		c0,0.5,0.1,0.9,0.2,1.4l-2-0.1c-0.2-0.5-0.2-1-0.2-1.4c0-3.1,2.1-5.1,5.3-5.1c3.5,0,5.2,2.1,5.2,4.6c0,2.7-2.5,4.9-4.6,6.6
		l-2.8,2.4L204.1,309.7L204.1,309.7z"/>
	<path fill="#010101" d="M212.6,311.8c-4,0-6.3-2.8-6.3-7.8s2.3-7.8,6.3-7.8s6.3,2.8,6.3,7.8S216.6,311.8,212.6,311.8z M212.6,297.7
		c-2.8,0-4.1,2.1-4.1,6.2s1.3,6.2,4.1,6.2s4.1-2.1,4.1-6.2S215.4,297.7,212.6,297.7z"/>
	<path fill="#010101" d="M225,311.5v-11.4h-4v-1.5h1.1c2.5,0,3.2-0.5,3.7-2.3h1.4v15.2L225,311.5L225,311.5z"/>
	<path fill="#010101" d="M232.7,306.5c0.1,2.1,1.5,3.6,3.9,3.6c2.1,0,3.5-1.4,3.5-3.6c0-2-1.3-3.5-3.5-3.5c-1.5,0-2.6,0.8-3.2,1.7
		l-2-0.4c0.4-2.2,0.8-5.6,0.9-7.9h9c0.1,1.2-0.2,2-1.7,2c-1.2,0-4.2-0.2-5.7-0.4c0,0.9-0.4,4.2-0.6,5c0.7-0.9,2-1.7,3.7-1.7
		c3.3,0,5.2,2.3,5.2,5.1c0,3.1-2.3,5.3-5.6,5.3s-5.6-1.9-5.9-4.8L232.7,306.5z"/>
	<path fill="#010101" d="M244.9,299.3h2.5v2.5h-2.5V299.3z M244.9,306.9h2.5v2.5h-2.5V306.9z"/>
	<path fill="#010101" d="M262.2,311.5v-13.3H256v-1.8h14.5v1.8h-6.2v13.3H262.2z"/>
	<path fill="#010101" d="M275.3,303.1c0.5-1.3,1.9-2.4,3.8-2.4c2.8,0,3.9,1.8,3.9,4.3v6.5h-2v-6.2c0-1.8-0.9-2.9-2.6-2.9
		c-1.8,0-3.1,1.4-3.1,3.4v5.7h-2v-15.1h2L275.3,303.1L275.3,303.1z"/>
	<path fill="#010101" d="M296.3,308.9c-0.8,1.8-2.5,2.9-4.9,2.9c-3.1,0-5.4-2.2-5.4-5.4c0-3.3,2.3-5.7,5.4-5.7c3.4,0,5,2.4,5,5.2
		v0.6H288c0,2.3,1.6,3.7,3.5,3.7c1.8,0,2.8-0.8,3.3-2.3L296.3,308.9z M294.4,305.2c-0.1-1.5-1.2-2.9-3.1-2.9s-3.1,1.4-3.3,2.9H294.4
		z"/>
	<path fill="#010101" d="M314.4,305.7h2.7v1.7h-2.7v4h-2v-4h-8v-2l7.4-9.1h2.6V305.7z M306.2,305.7h6.2v-7.6L306.2,305.7z"/>
	<path fill="#010101" d="M320.6,301v-2.9l2-0.6v3.5h4.5v1.5h-4.5v5.5c0,1.4,0.9,2.1,1.8,2.1c1.2,0,1.8-0.7,2.4-1.9l1,1.4
		c-0.5,1.1-1.8,2.2-3.5,2.2c-1.9,0-3.6-1.2-3.6-3.6v-5.7h-2.2V301H320.6z"/>
	<path fill="#010101" d="M332.3,303.1c0.5-1.3,1.9-2.4,3.8-2.4c2.8,0,3.9,1.8,3.9,4.3v6.5h-2v-6.2c0-1.8-0.9-2.9-2.6-2.9
		c-1.8,0-3.1,1.4-3.1,3.4v5.7h-2v-15.1h2L332.3,303.1L332.3,303.1z"/>
	<path fill="#010101" d="M351.9,296.4v15.1h-2.1v-15.1H351.9z"/>
	<path fill="#010101" d="M357.8,311.5h-2V301h2v2.1c0.5-1.3,1.9-2.4,3.8-2.4c2.8,0,3.9,1.8,3.9,4.3v6.5h-2v-6.2
		c0-1.8-0.9-2.9-2.6-2.9c-1.8,0-3.1,1.4-3.1,3.4L357.8,311.5L357.8,311.5z"/>
	<path fill="#010101" d="M370.1,301v-2.9l2-0.6v3.5h4.5v1.5H372v5.5c0,1.4,0.9,2.1,1.8,2.1c1.2,0,1.8-0.7,2.4-1.9l1,1.4
		c-0.5,1.1-1.8,2.2-3.5,2.2c-1.9,0-3.6-1.2-3.6-3.6v-5.7h-2.2V301H370.1z"/>
	<path fill="#010101" d="M389.3,308.9c-0.8,1.8-2.5,2.9-4.9,2.9c-3.1,0-5.4-2.2-5.4-5.4c0-3.3,2.3-5.7,5.4-5.7c3.4,0,5,2.4,5,5.2
		v0.6H381c0,2.3,1.6,3.7,3.5,3.7c1.8,0,2.8-0.8,3.3-2.3L389.3,308.9z M387.5,305.2c-0.1-1.5-1.2-2.9-3.1-2.9s-3.1,1.4-3.3,2.9H387.5
		z"/>
	<path fill="#010101" d="M394.3,306.1v5.3h-2V301h2v2.5c0.5-1.4,1.6-2.8,3.5-2.8c2,0,3.1,1.5,3.1,3.4c0,0.2,0,0.5-0.1,0.7l-1.7,0.5
		c0-0.2,0.1-0.5,0.1-0.7c0-1.3-0.6-2.2-1.9-2.2C395.7,302.5,394.3,304.1,394.3,306.1z"/>
	<path fill="#010101" d="M405.7,311.5h-2V301h2v2.1c0.5-1.3,1.9-2.4,3.8-2.4c2.8,0,3.9,1.8,3.9,4.3v6.5h-2v-6.2
		c0-1.8-0.9-2.9-2.6-2.9c-1.8,0-3.1,1.4-3.1,3.4L405.7,311.5L405.7,311.5z"/>
	<path fill="#010101" d="M416.6,303.6c0.7-1.7,2.4-2.9,4.9-2.9c2.4,0,3.8,1,3.8,3.1v5.2c0,0.8,0.4,1.1,0.9,1.1
		c0.4,0,0.8-0.2,1.2-0.4l0.1,1.5c-0.6,0.4-1.1,0.5-1.7,0.5c-1.4,0-2.3-1-2.4-2.3c-0.5,1.3-2,2.3-3.9,2.3c-2,0-3.3-1.2-3.3-3
		c0-1.9,1.7-2.7,4.1-3.3l3.1-0.7v-0.8c0-0.7-0.5-1.5-2-1.5c-1.7,0-2.7,0.9-3.1,2L416.6,303.6z M423.5,305.9l-2.6,0.6
		c-1.6,0.4-2.6,0.8-2.6,2c0,0.9,0.6,1.6,1.8,1.6c1.8,0,3.4-1.4,3.4-2.9L423.5,305.9L423.5,305.9z"/>
	<path fill="#010101" d="M430.4,301v-2.9l2-0.6v3.5h4.5v1.5h-4.5v5.5c0,1.4,0.9,2.1,1.8,2.1c1.2,0,1.8-0.7,2.4-1.9l1,1.4
		c-0.5,1.1-1.8,2.2-3.5,2.2c-1.9,0-3.6-1.2-3.6-3.6v-5.7h-2.2V301H430.4z"/>
	<path fill="#010101" d="M439.9,296.4h2.3v2.2h-2.3V296.4z M442.1,301v10.5h-2V301H442.1z"/>
	<path fill="#010101" d="M450.6,311.8c-3.1,0-5.5-2.3-5.5-5.5c0-3.3,2.4-5.5,5.5-5.5s5.5,2.3,5.5,5.5S453.7,311.8,450.6,311.8z
		 M450.6,310.2c2.1,0,3.5-1.6,3.5-3.9c0-2.4-1.3-4-3.5-4c-2.1,0-3.5,1.6-3.5,4C447.1,308.6,448.5,310.2,450.6,310.2z"/>
	<path fill="#010101" d="M461.1,311.5h-2V301h2v2.1c0.5-1.3,1.9-2.4,3.8-2.4c2.8,0,3.9,1.8,3.9,4.3v6.5h-2v-6.2
		c0-1.8-0.9-2.9-2.6-2.9c-1.8,0-3.1,1.4-3.1,3.4L461.1,311.5L461.1,311.5z"/>
	<path fill="#010101" d="M472.1,303.6c0.7-1.7,2.4-2.9,4.9-2.9c2.4,0,3.8,1,3.8,3.1v5.2c0,0.8,0.4,1.1,0.9,1.1
		c0.4,0,0.8-0.2,1.2-0.4l0.1,1.5c-0.6,0.4-1.1,0.5-1.7,0.5c-1.4,0-2.3-1-2.4-2.3c-0.5,1.3-2,2.3-3.9,2.3c-2,0-3.3-1.2-3.3-3
		c0-1.9,1.7-2.7,4.1-3.3l3.1-0.7v-0.8c0-0.7-0.5-1.5-2-1.5c-1.7,0-2.7,0.9-3.1,2L472.1,303.6z M478.9,305.9l-2.6,0.6
		c-1.6,0.4-2.6,0.8-2.6,2c0,0.9,0.6,1.6,1.8,1.6c1.8,0,3.4-1.4,3.4-2.9L478.9,305.9L478.9,305.9z"/>
	<path fill="#010101" d="M487.1,296.4v15.1h-2v-15.1H487.1z"/>
	<path fill="#010101" d="M502.2,311.5v-13.3H496v-1.8h14.5v1.8h-6.2v13.3H502.2z"/>
	<path fill="#010101" d="M515.4,311.5l-4.7-10.5h2.2l3.5,8.1h0.1l3.1-8.1h1.9l-4.5,11.2c-0.8,2-1.8,3.6-3.8,3.6
		c-1.7,0-2.6-1.1-2.8-2.4l1.6-0.8c0,1.1,0.4,1.7,1.3,1.7c0.7,0,1.2-0.6,1.7-1.8L515.4,311.5z"/>
	<path fill="#010101" d="M526,315.5h-2V301h2v2.3c0.5-1.4,1.8-2.6,3.8-2.6c3.1,0,5,2.4,5,5.5s-1.8,5.5-5,5.5c-2,0-3.2-1.1-3.8-2.5
		V315.5z M525.9,306.5c0,2.3,1.5,3.8,3.3,3.8c2.2,0,3.4-1.6,3.4-4s-1.3-4-3.4-4c-1.8,0-3.3,1.5-3.3,3.7V306.5z"/>
	<path fill="#010101" d="M542.5,311.8c-3.1,0-5.5-2.3-5.5-5.5c0-3.3,2.4-5.5,5.5-5.5s5.5,2.3,5.5,5.5S545.6,311.8,542.5,311.8z
		 M542.5,310.2c2.1,0,3.5-1.6,3.5-3.9c0-2.4-1.3-4-3.5-4c-2.1,0-3.5,1.6-3.5,4C539,308.6,540.4,310.2,542.5,310.2z"/>
	<path fill="#010101" d="M555.4,315.8c-2.9,0-5.5-0.9-5.5-3c0-1.1,1-2,2.3-2.2c-1-0.3-1.5-1-1.5-1.8c0-0.9,0.6-1.6,1.6-2
		c-0.8-0.6-1.2-1.5-1.2-2.6c0-2.2,1.8-3.6,4.3-3.6c1.2,0,2.3,0.3,3,0.9c0.5-1,1.7-1.9,3.2-1.7l0.2,1.8c-1-0.2-2.2,0.1-2.7,0.7
		c0.4,0.5,0.6,1.2,0.6,1.8c0,2.2-1.8,3.6-4.3,3.6c-0.8,0-1.6-0.1-2.2-0.4c-0.4,0.2-0.7,0.6-0.7,1.1s0.4,0.9,1.4,0.9h4
		c2.3,0,3.7,1.1,3.7,2.8C561.4,314.8,558.3,315.8,555.4,315.8z M555.4,314.5c2.3,0,4.1-0.6,4.1-2.1c0-1-1-1.4-2.3-1.4h-3.3
		c-1.1,0-2.2,0.6-2.2,1.6C551.7,313.9,553.4,314.5,555.4,314.5z M555.3,302c-1.3,0-2.4,0.9-2.4,2.2c0,1.4,1.1,2.3,2.4,2.3
		s2.4-0.9,2.4-2.3C557.6,302.9,556.6,302,555.3,302z"/>
	<path fill="#010101" d="M565.8,306.1v5.3h-2V301h2v2.5c0.5-1.4,1.6-2.8,3.5-2.8c2,0,3.1,1.5,3.1,3.4c0,0.2,0,0.5-0.1,0.7l-1.7,0.5
		c0-0.2,0.1-0.5,0.1-0.7c0-1.3-0.6-2.2-1.9-2.2C567.2,302.5,565.8,304.1,565.8,306.1z"/>
	<path fill="#010101" d="M574.6,303.6c0.7-1.7,2.4-2.9,4.9-2.9c2.4,0,3.8,1,3.8,3.1v5.2c0,0.8,0.4,1.1,0.9,1.1
		c0.4,0,0.8-0.2,1.2-0.4l0.1,1.5c-0.6,0.4-1.1,0.5-1.7,0.5c-1.4,0-2.3-1-2.4-2.3c-0.5,1.3-2,2.3-3.9,2.3c-2,0-3.3-1.2-3.3-3
		c0-1.9,1.7-2.7,4.1-3.3l3.1-0.7v-0.8c0-0.7-0.5-1.5-2-1.5c-1.7,0-2.7,0.9-3.1,2L574.6,303.6z M581.4,305.9l-2.6,0.6
		c-1.6,0.4-2.6,0.8-2.6,2c0,0.9,0.6,1.6,1.8,1.6c1.8,0,3.4-1.4,3.4-2.9L581.4,305.9L581.4,305.9z"/>
	<path fill="#010101" d="M589.6,315.5h-2V301h2v2.3c0.5-1.4,1.8-2.6,3.8-2.6c3.1,0,5,2.4,5,5.5s-1.8,5.5-5,5.5c-2,0-3.2-1.1-3.8-2.5
		V315.5z M589.5,306.5c0,2.3,1.5,3.8,3.3,3.8c2.2,0,3.4-1.6,3.4-4s-1.3-4-3.4-4c-1.8,0-3.3,1.5-3.3,3.7V306.5z"/>
	<path fill="#010101" d="M603.3,303.1c0.5-1.3,1.9-2.4,3.8-2.4c2.8,0,3.9,1.8,3.9,4.3v6.5h-2v-6.2c0-1.8-0.9-2.9-2.6-2.9
		c-1.8,0-3.1,1.4-3.1,3.4v5.7h-2v-15.1h2L603.3,303.1L603.3,303.1z"/>
	<path fill="#010101" d="M618,311.5l-4.7-10.5h2.2l3.5,8.1h0.1l3.1-8.1h1.9l-4.5,11.2c-0.8,2-1.8,3.6-3.8,3.6
		c-1.7,0-2.6-1.1-2.8-2.4l1.6-0.8c0,1.1,0.4,1.7,1.3,1.7c0.7,0,1.2-0.6,1.7-1.8L618,311.5z"/>
	<path fill="#010101" d="M645.2,307.3c0,2.6-1.9,4.2-5.4,4.2h-7.1v-15.1h6.8c3.7,0,5.3,1.6,5.3,4c0,1.8-1.5,3-3.2,3.2
		C643.5,303.9,645.2,305.2,645.2,307.3z M634.8,302.9h4.9c2.2,0,3.1-0.9,3.1-2.4s-0.9-2.4-3.1-2.4h-4.9V302.9z M634.8,304.5v5.2h5
		c2.2,0,3.4-0.9,3.4-2.6s-1.2-2.7-3.4-2.7h-5V304.5z"/>
	<path fill="#010101" d="M648.4,296.4h2.3v2.2h-2.3V296.4z M650.5,301v10.5h-2V301H650.5z"/>
	<path fill="#010101" d="M663.9,308.9c-0.8,1.8-2.5,2.9-4.9,2.9c-3.1,0-5.4-2.2-5.4-5.4c0-3.3,2.3-5.7,5.4-5.7c3.4,0,5,2.4,5,5.2
		v0.6h-8.4c0,2.3,1.6,3.7,3.5,3.7c1.8,0,2.8-0.8,3.3-2.3L663.9,308.9z M662,305.2c-0.1-1.5-1.2-2.9-3.1-2.9c-1.9,0-3.1,1.4-3.3,2.9
		H662z"/>
	<path fill="#010101" d="M668.9,311.5h-2V301h2v2.1c0.5-1.3,1.9-2.4,3.8-2.4c2.8,0,3.9,1.8,3.9,4.3v6.5h-2v-6.2
		c0-1.8-0.9-2.9-2.6-2.9c-1.8,0-3.1,1.4-3.1,3.4L668.9,311.5L668.9,311.5z"/>
	<path fill="#010101" d="M682.3,311.5h-2V301h2v2.1c0.5-1.3,1.9-2.4,3.8-2.4c2.8,0,3.9,1.8,3.9,4.3v6.5h-2v-6.2
		c0-1.8-0.9-2.9-2.6-2.9c-1.8,0-3.1,1.4-3.1,3.4L682.3,311.5L682.3,311.5z"/>
	<path fill="#010101" d="M693.2,303.6c0.7-1.7,2.4-2.9,4.9-2.9c2.4,0,3.8,1,3.8,3.1v5.2c0,0.8,0.4,1.1,0.9,1.1
		c0.4,0,0.8-0.2,1.2-0.4l0.1,1.5c-0.6,0.4-1.1,0.5-1.7,0.5c-1.4,0-2.3-1-2.4-2.3c-0.5,1.3-2,2.3-3.9,2.3c-2,0-3.3-1.2-3.3-3
		c0-1.9,1.7-2.7,4.1-3.3l3.1-0.7v-0.8c0-0.7-0.5-1.5-2-1.5c-1.7,0-2.7,0.9-3.1,2L693.2,303.6z M700.1,305.9l-2.6,0.6
		c-1.6,0.4-2.6,0.8-2.6,2c0,0.9,0.6,1.6,1.8,1.6c1.8,0,3.4-1.4,3.4-2.9L700.1,305.9L700.1,305.9z"/>
	<path fill="#010101" d="M708.3,296.4v15.1h-2v-15.1H708.3z"/>
	<path fill="#010101" d="M721.6,308.9c-0.8,1.8-2.5,2.9-4.9,2.9c-3.1,0-5.4-2.2-5.4-5.4c0-3.3,2.3-5.7,5.4-5.7c3.4,0,5,2.4,5,5.2
		v0.6h-8.4c0,2.3,1.6,3.7,3.5,3.7c1.8,0,2.8-0.8,3.3-2.3L721.6,308.9z M719.8,305.2c-0.1-1.5-1.2-2.9-3.1-2.9
		c-1.9,0-3.1,1.4-3.3,2.9H719.8z"/>
</g>
</svg>
