<?xml version="1.0" encoding="utf-8"?>
<!-- Generator: Adobe Illustrator 18.1.1, SVG Export Plug-In . SVG Version: 6.00 Build 0)  -->
<svg version="1.1" id="Layer_1" xmlns="http://www.w3.org/2000/svg" xmlns:xlink="http://www.w3.org/1999/xlink" x="0px" y="0px"
	 viewBox="0 0 680 40" enable-background="new 0 0 680 40" xml:space="preserve">
<g>
	<path fill="#FFFFFF" d="M128.6,30.1v-4.9c-2.9,0.5-5.3,0.6-8.5,0.6h-2.9v-15h11.4v4.3h-6.7v0.7h6.3v4.3h-6.3v1.3
		c2.4,0,4.3-0.2,6.3-0.5l0.4-0.1V9.2h4.6v7.2h3v4.4h-3v9.3H128.6z"/>
	<path fill="#FFFFFF" d="M147.7,30.2v-21h4.6v21H147.7z M141.4,26.1c-3.6,0-6.1-3.2-6.1-7.8s2.5-7.8,6.1-7.8s6.1,3.2,6.1,7.8
		S145,26.1,141.4,26.1z M141.4,15.1c-0.9,0-1.5,1.4-1.5,3.3c0,1.9,0.6,3.3,1.5,3.3c0.8,0,1.5-1.4,1.5-3.3
		C142.9,16.5,142.2,15.1,141.4,15.1z"/>
	<path fill="#FFFFFF" d="M152.9,27.9v-4.3h7.3v-1.1h-5.8v-4.3h2.7v-2.9h-2.8v-4.3h16.3v4.3h-2.8v2.9h2.7v4.3h-5.8v1.1h7.3v4.3H152.9
		z M163.2,18.1v-2.9h-1.5v2.9H163.2z"/>
	<path fill="#FFFFFF" d="M173.8,29.7v-6.7l-1.1,0.4l-2.5-3.9l1.8-0.6c1.8-0.6,3.1-2.2,3.4-3.8h-3.9v-4.3h11.8V9.2h4.6v5.5h2.7V19
		H188v6.3h-4.6V22l-0.7,1l-1.1-0.4c-1.5-0.6-2.7-1.4-3.7-2.5c-0.3,0.4-0.6,0.7-1,1.1h1.6v4.2h10.3v4.3H173.8z M180.2,15.1
		c0.3,1.5,1.5,2.8,3.2,3.4v-3.4H180.2z"/>
	<path fill="#FFFFFF" d="M202.3,30.1v-4.3l-0.6,0.9l-1.1-0.5c-1.5-0.7-2.9-1.8-3.9-3.3c-1,1.5-2.4,2.8-4,3.6l-1.1,0.5l-2.7-3.7
		l1.6-0.8c2.2-1,3.7-3.5,3.8-6h-4.2v-4.3h4.1V9.5h4.7v2.8h3.4V9.2h4.7v20.9H202.3z M198.9,16.6c0,2.2,1.5,4.4,3.4,5.4v-5.4H198.9z"
		/>
	<path fill="#FFFFFF" d="M213.6,28.7v-3.4l4.8-4.1c2.4-2,3.7-3.2,3.7-4.7c0-1-0.5-1.5-1.6-1.5c-0.9,0-1.8,0.2-1.8,2
		c0,0.3,0,0.6,0.1,0.8l0.8,2.1l-5.3-0.3l-0.3-1c-0.2-0.6-0.3-1.3-0.3-1.9c0-3.9,2.7-6.6,6.8-6.6c4.6,0,6.7,3.1,6.7,6.1
		c0,3.3-2.7,5.8-4.8,7.5h5.2v4.8H213.6z"/>
	<path fill="#FFFFFF" d="M234.8,28.9c-4.9,0-7.8-3.5-7.8-9.3s2.9-9.3,7.8-9.3c4.9,0,7.8,3.5,7.8,9.3S239.7,28.9,234.8,28.9z
		 M234.8,14.9c-0.8,0-2.6,0-2.6,4.7c0,4.7,1.8,4.7,2.6,4.7s2.6,0,2.6-4.7C237.4,14.9,235.7,14.9,234.8,14.9z"/>
	<path fill="#FFFFFF" d="M245.7,28.7V17.2h-4v-4.5h2.6c1.9,0,2-0.1,2.2-1.1l0.3-1.1h4v18.2H245.7z"/>
	<path fill="#FFFFFF" d="M258.7,28.9c-4.1,0-7.1-2.5-7.4-6.2l-0.1-1.3l1-0.2l-0.4-0.1l0.2-1.5c0.4-2.2,0.8-5.6,0.8-7.7l0-1.5h11.8
		l0.1,1.3c0.1,1.1-0.1,2-0.7,2.7c-0.6,0.6-1.4,1-2.5,1c-0.7,0-2.2-0.1-4.4-0.2c0,0.2,0,0.3-0.1,0.5c0.6-0.2,1.2-0.2,1.9-0.2
		c3.9,0,6.7,2.7,6.7,6.6C265.8,26.1,262.8,28.9,258.7,28.9z M256.4,22.2c0,1.4,0.9,2.1,2.4,2.1c1.8,0,2-1.3,2-2.2c0-0.6-0.2-2-2-2
		c-1.2,0-1.8,0.7-2,1l-0.5,0.8L256.4,22.2z"/>
	<path fill="#FFFFFF" d="M265.6,26.7v-5.5h5.5v5.5H265.6z M265.6,19v-5.5h5.5V19H265.6z"/>
	<path fill="#FFFFFF" d="M290.3,30.1v-0.9h-3.6v-2.9l-0.1,0.1l-1.1-0.7c-0.8-0.5-1.9-1.5-2.8-2.7c-0.9,1.3-2,2.3-3,3l-1.1,0.7
		l-3.3-3.5l1.5-1c2.1-1.3,3.3-3.8,3.3-6.6v-0.2h-3.6V11h10V9.2h3.6V8.8h4.8v21.3H290.3z M286.2,19.9c0.1,0.2,0.3,0.4,0.4,0.6v-0.6
		H286.2z"/>
	<path fill="#FFFFFF" d="M302.8,28.7v-4h-8v-4l8.2-10h4.8v9.4h2.7v4.7h-2.7v4H302.8z M302.8,19.9V18l-1.6,1.9H302.8z"/>
	<path fill="#FFFFFF" d="M322.4,30.1v-3.4c-1.6,0.2-3.7,0.3-5.6,0.5l-0.9,0c-1.8,0.1-3.6,0.2-5,0.2h-1.2l-0.9-4.6h1.8
		c0.6,0,1.2,0,1.8,0c-1.1-0.8-1.7-2-1.7-3.3c0-1,0.3-1.8,0.9-2.5h-1.9v-4.5h2.7V9.7h8.3v2.8h1.7V8.8h4.8v21.3H322.4z M322.4,20.7
		c-0.2,0.6-0.5,1.1-1,1.6c0.4,0,0.7-0.1,1-0.1V20.7z M315.9,19.4c0.2,0.1,0.4,0.1,0.8,0.1c0.3,0,0.6-0.1,0.8-0.1
		c-0.2-0.1-0.4-0.1-0.8-0.1C316.3,19.3,316.1,19.4,315.9,19.4z M321.7,16.9c0.3,0.4,0.5,0.8,0.7,1.2v-1.2H321.7z"/>
	<path fill="#FFFFFF" d="M345.3,30.2v-4.8h-10.8v-4.5h5.6v-0.3h-7.3v-4.5H345c0.1-0.6,0.1-1.2,0.2-1.9h-10.5V9.8h15.5v1.5
		c0,1.7-0.1,3.4-0.3,4.9h2.4v4.5H345v0.3h5.2v9.3H345.3z"/>
	<path fill="#FFFFFF" d="M364.6,30.1v-0.9H361v-2.9l-0.1,0.1l-1.1-0.7c-0.8-0.5-1.9-1.5-2.8-2.7c-0.9,1.3-2,2.3-3,3l-1.1,0.7
		l-3.3-3.5l1.5-1c2.1-1.3,3.3-3.8,3.3-6.6v-0.2H351V11h10V9.2h3.6V8.8h4.8v21.3H364.6z M360.6,19.9c0.1,0.2,0.3,0.4,0.4,0.6v-0.6
		H360.6z"/>
	<path fill="#FFFFFF" d="M386.9,30.1v-4.9c-2,0.3-4.9,0.5-8.4,0.6l-3.2,0V10.5h11.7V8.8h4.8v7.2h2.9v4.5h-2.9v9.6H386.9z
		 M380.1,21.3c2.9,0,5.2-0.2,6.5-0.6l0.3-0.1V15h-6.8v0.7h6.5v4.5h-6.5V21.3z"/>
	<path fill="#FFFFFF" d="M406,30.1V8.8h4.9v21.3H406z M399.6,26.1c-3.8,0-6.2-3.1-6.2-8c0-4.9,2.4-8,6.2-8c3.8,0,6.2,3.1,6.2,8
		C405.8,23.1,403.5,26.1,399.6,26.1z M399.6,14.8c-0.9,0-1.3,1.8-1.3,3.4c0,1.6,0.4,3.4,1.3,3.4c0.9,0,1.4-1.7,1.4-3.4
		C401,16.5,400.6,14.8,399.6,14.8z"/>
	<path fill="#FFFFFF" d="M410.9,27.8v-4.5h7.3v-0.7h-5.9v-4.5h2.9l-0.3-3h-2.6v-4.5H429v4.5h-2.3l-0.5,3h2.7v4.5h-5.9v0.7h7.4v4.5
		H410.9z M421.5,18.1l0.4-3h-2.1l0.2,3H421.5z"/>
	<path fill="#FFFFFF" d="M429.1,27.5V23h11.6l0.1-0.4c0.3-1.3,0.6-4.5,0.7-7.2h-10.7v-4.5h15.6v1.5c0,4.1-0.3,8.1-0.8,10.6h3v4.5
		H429.1z"/>
	<path fill="#FFFFFF" d="M461,30.1v-0.9h-3.9v-4c-1.8,0.3-4.3,0.5-6.5,0.5h-2.8v-10h5.4v-0.5h-5.4v-4.5h9.3V9.2h3.9V8.8h4.8v21.3
		H461z M452.6,21.2c1.5-0.1,3.1-0.2,4.5-0.5v-0.5h-4.5V21.2z"/>
	<path fill="#FFFFFF" d="M478.6,30.1v-5.1c-1.4,0.2-3.4,0.4-5.4,0.5c-2.5,0.1-4.5,0.2-6,0.2h-1.3l-0.7-4.6c0,0,2.4,0,2.8,0l-0.5-6
		h-1.5v-4.5h12.7V8.8h4.8v21.3H478.6z M477.1,20.7c0.5,0,0.9-0.1,1.2-0.2l0.3,0v-5.4h-1L477.1,20.7z M472.5,19.2l0.3-4.1h-0.5
		L472.5,19.2z"/>
	<path fill="#FFFFFF" d="M502.4,30.1V8.8h4.9v21.3H502.4z M490,25.6V10.4h4.8v4.6h2.2v-4.6h4.8v15.2H490z M497,21.1v-1.6h-2.2v1.6
		H497z"/>
	<path fill="#FFFFFF" d="M510.6,29.6v-7.9c-2-0.9-3.3-3-3.3-5.6c0-3.5,2.4-6.1,5.7-6.1c1.8,0,3.3,0.7,4.4,2V9.2h3.5V8.8h4.8v16.3
		h0.5v4.5H510.6z M521,25.1v-0.2h-3.5v-4.7c-0.5,0.7-1.2,1.2-2,1.5v3.3H521z M513.1,14.7c-0.7,0-0.9,0.9-0.9,1.5
		c0,0.1,0,1.5,0.9,1.5s1-1.1,1-1.5C514.1,15.9,514,14.7,513.1,14.7z"/>
	<path fill="#FFFFFF" d="M527.8,30v-6.5h-0.1v-3.3c0,0-1.6,0-1.6,0V9.7h4.8v5.9c2.4-0.1,4.7-0.3,6.3-0.7l0.6-0.1v-6h4.9v3.8h2.7v4.5
		h-2.7v8.4h0.7V30H527.8z"/>
	<path fill="#FFFFFF" d="M557.3,30.1v-0.9h-3.5v-4.1c-1.6,0.3-3.8,0.5-6.7,0.5l-3,0v-9.9h5v-0.3h-5v-4.5h9.8V9.2h3.5V8.8h4.8v21.3
		H557.3z M548.9,21.1c1.7-0.1,3.1-0.2,4.2-0.4l0.7-0.1v-0.3h-4.9V21.1z"/>
	<path fill="#010101" d="M120.4,23c3.2,0,5.4-0.1,8.1-0.6l0.2,1.3c-2.8,0.5-5.1,0.6-8.5,0.6h-1.4v-12h8.4v1.3h-6.7v3.7h6.3v1.3h-6.3
		V23z M134.7,19.3h-3v9.3h-1.6V10.7h1.6v7.2h3V19.3z"/>
	<path fill="#010101" d="M146,18.3c0,3.8-1.9,6.3-4.6,6.3s-4.6-2.4-4.6-6.3c0-3.8,1.9-6.3,4.6-6.3S146,14.5,146,18.3z M138.4,18.3
		c0,2.9,1.2,4.8,3,4.8c1.7,0,3-1.9,3-4.8c0-2.9-1.2-4.8-3-4.8C139.6,13.6,138.4,15.4,138.4,18.3z M150.9,10.7v18h-1.6v-18H150.9z"/>
	<path fill="#010101" d="M170.6,25.1v1.3h-16.3v-1.3h7.3v-4.1h-5.8v-1.3h2.7v-5.9h-2.8v-1.3h13.3v1.3h-2.8v5.9h2.7v1.3h-5.8v4.1
		H170.6z M160.2,19.6h4.5v-5.9h-4.5V19.6z"/>
	<path fill="#010101" d="M182.1,21.2c-2-0.7-3.5-2.2-4.3-4c-0.8,2.1-2.4,3.7-4.5,4.5l-0.8-1.3c2.7-1,4.5-3.4,4.5-5.9v-0.8h-4v-1.3
		h9.6v1.3h-4v0.8c0,2.4,1.7,4.6,4.4,5.5L182.1,21.2z M177,26.9h10.3v1.3h-12v-5.6h1.6V26.9z M189.2,16.2v1.4h-2.7v6.3h-1.6V10.7h1.6
		v5.5H189.2z"/>
	<path fill="#010101" d="M197.4,16.5c0,3,2,5.9,4.7,7.1l-0.9,1.3c-2.1-0.9-3.8-2.9-4.6-5.2c-0.8,2.5-2.5,4.5-4.6,5.5l-0.9-1.2
		c2.7-1.3,4.6-4.3,4.6-7.4v-1.4h-4.2v-1.3h4.1V11h1.7v2.8h4.1v1.3h-4.1V16.5z M205.5,10.7v17.9h-1.7V10.7H205.5z"/>
	<path fill="#010101" d="M226.3,25.4v1.8h-11.2V26l4.3-3.7c2.4-2.1,4.2-3.6,4.2-5.8c0-1.8-1.1-3-3.1-3c-2.1,0-3.3,1.3-3.3,3.5
		c0,0.5,0.1,0.9,0.2,1.4l-2-0.1c-0.2-0.5-0.2-1-0.2-1.4c0-3.1,2.1-5.1,5.3-5.1c3.5,0,5.2,2.1,5.2,4.6c0,2.7-2.5,4.9-4.6,6.6
		l-2.8,2.4H226.3z"/>
	<path fill="#010101" d="M234.8,27.4c-4,0-6.3-2.8-6.3-7.8s2.3-7.8,6.3-7.8c4,0,6.3,2.8,6.3,7.8S238.8,27.4,234.8,27.4z M234.8,13.4
		c-2.8,0-4.1,2.1-4.1,6.2s1.3,6.2,4.1,6.2c2.8,0,4.1-2.1,4.1-6.2S237.6,13.4,234.8,13.4z"/>
	<path fill="#010101" d="M247.2,27.2V15.7h-4v-1.5h1.1c2.5,0,3.2-0.5,3.7-2.3h1.4v15.2H247.2z"/>
	<path fill="#010101" d="M254.9,22.2c0.1,2.1,1.5,3.6,3.9,3.6c2.1,0,3.5-1.4,3.5-3.6c0-2-1.3-3.5-3.5-3.5c-1.5,0-2.6,0.8-3.2,1.7
		l-2-0.4c0.4-2.2,0.8-5.6,0.9-7.9h9c0.1,1.2-0.2,2-1.7,2c-1.2,0-4.2-0.2-5.7-0.4c0,0.9-0.4,4.2-0.6,5c0.7-0.9,2-1.7,3.7-1.7
		c3.3,0,5.2,2.3,5.2,5.1c0,3.1-2.3,5.3-5.6,5.3c-3.3,0-5.6-1.9-5.9-4.8L254.9,22.2z"/>
	<path fill="#010101" d="M267.1,15h2.5v2.5h-2.5V15z M267.1,22.6h2.5v2.5h-2.5V22.6z"/>
	<path fill="#010101" d="M286.3,24.4c-1.3-0.8-3.2-2.9-3.7-4.8c-0.4,1.9-2,4-3.7,5.1l-1.2-1.3c2.3-1.5,4-4.2,4-7.8V14h-3.6v-1.5h8.8
		V14h-3.4v1.7c0,3.8,1.9,6.3,3.9,7.5L286.3,24.4z M288.1,27.7v-9.3h-2.7v-1.5h2.7v-6.2h1.8v17H288.1z M291.8,28.6V10.3h1.8v18.4
		H291.8z"/>
	<path fill="#010101" d="M306.4,21.4h2.7v1.7h-2.7v4h-2v-4h-8v-2l7.4-9.1h2.6V21.4z M298.1,21.4h6.2v-7.6L298.1,21.4z"/>
	<path fill="#010101" d="M316.7,25.6c-2,0.1-4.2,0.2-5.8,0.2l-0.3-1.6c1.5,0,3.3,0,5.1-0.1v-1.7c-2.1-0.3-3.5-1.4-3.5-3
		c0-1.9,1.8-3.1,4.4-3.1c2.6,0,4.5,1.2,4.5,3.1c0,1.6-1.4,2.8-3.6,3.1v1.6c2-0.1,4-0.2,5.2-0.4l0.2,1.5
		C321.4,25.3,318.9,25.5,316.7,25.6z M311.2,15.4v-1.5h10.9v1.5H311.2z M313.9,12.7v-1.5h5.3v1.5H313.9z M316.6,17.8
		c-1.4,0-2.5,0.7-2.5,1.6c0,0.9,1,1.6,2.5,1.6c1.5,0,2.5-0.7,2.5-1.6C319.2,18.5,318.1,17.8,316.6,17.8z M323.9,28.6V10.3h1.8v18.4
		H323.9z"/>
	<path fill="#010101" d="M341.6,22.4v-3.3h-7.3v-1.5h12.1c0.3-1.3,0.5-3.5,0.5-4.8h-10.6v-1.5h12.5c0,2.4-0.2,4.6-0.6,6.4h2.7v1.5
		h-7.3v3.3h5.2v6.3h-1.9v-4.8H336v-1.5H341.6z"/>
	<path fill="#010101" d="M360.7,24.4c-1.3-0.8-3.2-2.9-3.7-4.8c-0.4,1.9-2,4-3.7,5.1l-1.2-1.3c2.3-1.5,4-4.2,4-7.8V14h-3.6v-1.5h8.8
		V14h-3.4v1.7c0,3.8,1.9,6.3,3.9,7.5L360.7,24.4z M362.5,27.7v-9.3h-2.7v-1.5h2.7v-6.2h1.8v17H362.5z M366.1,28.6V10.3h1.8v18.4
		H366.1z"/>
	<path fill="#010101" d="M387,22.2l0.2,1.5c-2,0.4-5.2,0.6-8.7,0.7h-1.7V12h8.8v1.5h-6.9v3.7h6.5v1.5h-6.5v4.1
		C381.7,22.8,385,22.6,387,22.2z M390.3,17.4h2.9V19h-2.9v9.6h-1.8V10.3h1.8V17.4z"/>
	<path fill="#010101" d="M399.6,11.7c3.3,0,4.7,2.8,4.7,6.5c0,3.6-1.4,6.5-4.7,6.5s-4.7-2.9-4.7-6.5
		C394.9,14.5,396.4,11.7,399.6,11.7z M399.6,13.3c-1.9,0-2.8,2.1-2.8,4.9c0,2.8,1,4.9,2.8,4.9c1.9,0,2.9-2,2.9-4.9
		C402.5,15.3,401.5,13.3,399.6,13.3z M407.5,28.6V10.3h1.9v18.4H407.5z"/>
	<path fill="#010101" d="M421.6,21.1v3.7h7.4v1.5h-16.6v-1.5h7.3v-3.7h-5.9v-1.5h3.1l-0.5-4.8l1.9-0.3l0.4,5.1h4.2l0.7-5l1.8,0.3
		l-0.8,4.7h3v1.5H421.6z M413.8,13.6v-1.5h13.8v1.5H413.8z"/>
	<path fill="#010101" d="M430.6,26v-1.5h16.6V26H430.6z M444.1,23.1l-1.8-0.2c0.5-1.8,0.8-6.3,0.8-9h-10.8v-1.5H445
		C445,16.5,444.6,20.8,444.1,23.1z"/>
	<path fill="#010101" d="M450.6,24.2h-1.3v-7h5.4v-3.5h-5.4v-1.5h7.3v6.6h-5.4v4c1.9,0,4.4-0.1,6.3-0.5l0.2,1.5
		C455.8,24,453,24.2,450.6,24.2z M462.5,28.6v-9.6h-2.1v8.7h-1.8v-17h1.8v6.9h2.1v-7.3h1.8v18.4H462.5z"/>
	<path fill="#010101" d="M478.7,23.5c-1.3,0.2-3.4,0.4-5.6,0.5c-2.1,0.1-4.2,0.2-6,0.2l-0.3-1.6c0.9,0,1.7,0,2.6,0l-0.6-7.5l1.8-0.2
		l0.5,7.6l1.9-0.1c0.2,0,0.4,0,0.7,0l0.5-7.5l1.8,0.2l-0.7,7.2c1.3-0.1,2.4-0.2,3.1-0.3L478.7,23.5z M467.4,13.6v-1.5h10.3v1.5
		H467.4z M480.1,28.6V10.3h1.8v18.4H480.1z"/>
	<path fill="#010101" d="M491.5,24.1V11.9h1.8v4.6h5.2v-4.6h1.8v12.2H491.5z M498.5,17.9h-5.2v4.6h5.2V17.9z M503.9,28.6V10.3h1.9
		v18.4H503.9z"/>
	<path fill="#010101" d="M519,23.4v-6.6h-1.7c-0.3,2.2-1.8,3.9-4.2,3.9c-2.6,0-4.3-2.1-4.3-4.6c0-2.5,1.6-4.6,4.2-4.6
		c2.4,0,3.9,1.6,4.2,3.7h1.7v-4.6h1.8v12.8H519z M513.1,13.2c-1.5,0-2.4,1.3-2.4,3c0,1.7,0.9,3,2.4,3c1.6,0,2.5-1.3,2.5-3
		C515.6,14.5,514.7,13.2,513.1,13.2z M512.1,28.1v-5.8h1.9v4.3h10.8v1.5H512.1z M522.5,23.9V10.3h1.8v13.6H522.5z"/>
	<path fill="#010101" d="M529.8,18.7c-0.8,0-1.6,0-2.3,0v-7.5h1.8v5.9c2.7,0,5.9-0.3,8.1-0.8c0.1,0.5,0.2,1,0.3,1.6
		C535.7,18.4,532.4,18.6,529.8,18.7z M529.3,28.5v-4.8h10V22h-10.1v-1.5h11.9v4.6h-10V27h10.6v1.5H529.3z M541.1,15.6v3.9h-1.9v-9.2
		h1.9V14h2.7v1.5H541.1z"/>
	<path fill="#010101" d="M547.1,24.2h-1.5v-7h5v-3.3h-5v-1.5h6.9v6.4h-5v3.9c1.9,0,4.1-0.1,6-0.5c0.1,0.5,0.1,1,0.2,1.5
		C552,24,549.5,24.1,547.1,24.2z M555.3,27.7v-9h-2.2v-1.5h2.2v-6.5h1.8v17H555.3z M558.8,28.6V10.3h1.8v18.4H558.8z"/>
</g>
</svg>
