<?xml version="1.0" encoding="utf-8"?>
<!-- Generator: Adobe Illustrator 18.1.1, SVG Export Plug-In . SVG Version: 6.00 Build 0)  -->
<svg version="1.1" id="Layer_1" xmlns="http://www.w3.org/2000/svg" xmlns:xlink="http://www.w3.org/1999/xlink" x="0px" y="0px"
	 viewBox="-4 291 800 30" enable-background="new -4 291 800 30" xml:space="preserve">
<g>
	<path fill="#FFFFFF" d="M153.8,318.7v-5.9c-3.5,0.6-6.4,0.7-10.2,0.7h-3.5v-18h13.7v5.1h-8v0.8h7.5v5.1h-7.5v1.5
		c2.9,0,5.1-0.2,7.5-0.6l0.5-0.1v-13.9h5.6v8.6h3.6v5.2h-3.6v11.1C159.2,318.7,153.8,318.7,153.8,318.7z"/>
	<path fill="#FFFFFF" d="M176.6,318.8v-25.2h5.6v25.2H176.6z M169.1,313.8c-4.3,0-7.3-3.8-7.3-9.4c0-5.6,3-9.4,7.3-9.4
		c4.3,0,7.3,3.8,7.3,9.4C176.4,310,173.4,313.8,169.1,313.8z M169.1,300.7c-1,0-1.7,1.6-1.7,3.9c0,2.3,0.7,3.9,1.7,3.9
		c0.9,0,1.7-1.6,1.7-3.9C170.8,302.3,170,300.7,169.1,300.7z"/>
	<path fill="#FFFFFF" d="M182.9,316v-5.1h8.7v-1.3h-7v-5.1h3.2v-3.5h-3.4v-5.1H204v5.1h-3.4v3.5h3.2v5.1h-7v1.3h8.7v5.1
		C205.7,316,182.9,316,182.9,316z M195.2,304.3v-3.5h-1.7v3.5H195.2z"/>
	<path fill="#FFFFFF" d="M207.9,318.1v-8l-1.3,0.5l-3-4.6l2.2-0.7c2.2-0.7,3.7-2.7,4.1-4.5h-4.6v-5.1h14.1v-2h5.6v6.6h3.2v5.1h-3.1
		v7.5h-5.6V309l-0.8,1.2l-1.3-0.5c-1.7-0.7-3.2-1.6-4.4-3c-0.3,0.5-0.7,0.8-1.2,1.3h2v5h12.3v5.1h-18V318.1z M215.6,300.7
		c0.3,1.7,1.7,3.4,3.8,4.1v-4.1H215.6z"/>
	<path fill="#FFFFFF" d="M242,318.7v-5.1l-0.7,1l-1.3-0.6c-1.7-0.8-3.5-2.2-4.6-3.9c-1.2,1.7-2.9,3.4-4.8,4.3l-1.3,0.6l-3.2-4.4
		l2-0.9c2.7-1.2,4.4-4.2,4.5-7.2h-5v-5.1h4.9v-3.2h5.7v3.4h4.1v-3.7h5.7v25C247.7,318.7,242,318.7,242,318.7z M238,302.4
		c0,2.7,1.7,5.2,4.1,6.5v-6.5H238z"/>
	<path fill="#FFFFFF" d="M255.6,316.9v-4.1l5.8-4.9c2.9-2.4,4.4-3.8,4.4-5.7c0-1.2-0.6-1.7-2-1.7c-1,0-2.2,0.2-2.2,2.4
		c0,0.3,0,0.7,0.1,0.9l0.9,2.5l-6.4-0.3l-0.3-1.2c-0.2-0.7-0.3-1.5-0.3-2.3c0-4.6,3.2-7.9,8.1-7.9c5.6,0,8,3.7,8,7.3
		c0,3.9-3.2,7-5.8,8.9h6.3v5.8h-16.8V316.9z"/>
	<path fill="#FFFFFF" d="M281,317.2c-5.9,0-9.4-4.2-9.4-11.1c0-7,3.5-11.1,9.4-11.1c5.9,0,9.4,4.2,9.4,11.1
		C290.4,313,286.9,317.2,281,317.2z M281,300.4c-0.9,0-3.1,0-3.1,5.7c0,5.7,2.2,5.7,3.1,5.7c0.9,0,3.1,0,3.1-5.7
		C284.1,300.4,282,300.4,281,300.4z"/>
	<path fill="#FFFFFF" d="M294.1,316.9v-13.8h-4.8v-5.3h3.1c2.3,0,2.4-0.1,2.7-1.3l0.3-1.3h4.8v21.8L294.1,316.9L294.1,316.9z"/>
	<path fill="#FFFFFF" d="M309.6,317.2c-4.9,0-8.5-3-8.8-7.4l-0.1-1.5l1.2-0.2l-0.5-0.1l0.2-1.7c0.5-2.7,0.9-6.7,0.9-9.3v-1.7h14.1
		l0.1,1.5c0.1,1.3-0.1,2.4-0.8,3.2c-0.7,0.7-1.6,1.2-3,1.2c-0.8,0-2.7-0.1-5.2-0.2c0,0.2,0,0.3-0.1,0.6c0.7-0.2,1.4-0.2,2.3-0.2
		c4.6,0,8,3.2,8,7.9C318.1,313.8,314.5,317.2,309.6,317.2z M306.8,309.2c0,1.6,1,2.5,2.9,2.5c2.2,0,2.4-1.5,2.4-2.7
		c0-0.7-0.2-2.4-2.4-2.4c-1.4,0-2.2,0.8-2.4,1.2l-0.6,0.9L306.8,309.2z"/>
	<path fill="#FFFFFF" d="M317.8,314.5V308h6.6v6.6H317.8z M317.8,305.3v-6.6h6.6v6.6H317.8z"/>
	<path fill="#FFFFFF" d="M347.4,318.7v-1h-4.3v-3.5l-0.1,0.1l-1.3-0.8c-0.9-0.6-2.3-1.7-3.4-3.2c-1,1.5-2.4,2.8-3.6,3.6l-1.3,0.8
		l-3.9-4.2l1.7-1.2c2.5-1.5,3.9-4.5,3.9-7.9v-0.2h-4.2v-5.2h11.9v-2.2h4.3v-0.5h5.8v25.5C353,318.7,347.4,318.7,347.4,318.7z
		 M342.5,306.4c0.1,0.2,0.3,0.5,0.5,0.7v-0.7H342.5z"/>
	<path fill="#FFFFFF" d="M362.5,316.9v-4.8h-9.6v-4.8l9.9-11.9h5.8v11.2h3.2v5.7h-3.2v4.8h-6v-0.1H362.5z M362.5,306.4v-2.3l-2,2.3
		H362.5z"/>
	<path fill="#FFFFFF" d="M385.9,318.7v-4.1c-2,0.2-4.4,0.3-6.7,0.6h-1c-2.2,0.1-4.3,0.2-6,0.2h-1.4l-1-5.6h2.2c0.7,0,1.4,0,2.2,0
		c-1.3-0.9-2.1-2.4-2.1-3.9c0-1.2,0.3-2.2,1-3h-2.3v-5.3h3.2v-3.4h10v3.4h2.1v-4.4h5.8v25.5C391.7,318.7,385.9,318.7,385.9,318.7z
		 M385.9,307.3c-0.2,0.7-0.6,1.3-1.2,2c0.5,0,0.8-0.1,1.2-0.1V307.3z M378.1,305.8c0.2,0.1,0.5,0.1,0.9,0.1c0.3,0,0.7-0.1,0.9-0.1
		c-0.2-0.1-0.5-0.1-0.9-0.1C378.6,305.7,378.4,305.8,378.1,305.8z M385.1,302.8c0.3,0.5,0.6,0.9,0.8,1.4v-1.4H385.1z"/>
	<path fill="#FFFFFF" d="M413.4,318.8V313h-13v-5.5h6.7v-0.3h-8.7v-5.3H413c0.1-0.7,0.1-1.4,0.2-2.3h-12.5v-5.2h18.6v1.7
		c0,2.1-0.1,4.1-0.3,5.9h2.9v5.3h-8.7v0.3h6.3v11.2h-5.9v-0.1H413.4z"/>
	<path fill="#FFFFFF" d="M436.5,318.7v-1h-4.3v-3.5l-0.1,0.1l-1.3-0.8c-0.9-0.6-2.3-1.7-3.4-3.2c-1,1.5-2.4,2.8-3.6,3.6l-1.3,0.8
		l-3.9-4.2l1.7-1.2c2.5-1.5,3.9-4.5,3.9-7.9v-0.2h-4.1v-5.2H432v-2.2h4.3v-0.5h5.8v25.5C442.2,318.7,436.5,318.7,436.5,318.7z
		 M431.7,306.4c0.1,0.2,0.3,0.5,0.5,0.7v-0.7H431.7z"/>
	<path fill="#FFFFFF" d="M463.2,318.7v-5.9c-2.4,0.3-5.9,0.6-10.1,0.7h-3.8v-18.3h14v-2.1h5.8v8.6h3.5v5.3H469v11.5L463.2,318.7
		L463.2,318.7z M455,308.1c3.5,0,6.3-0.2,7.8-0.7l0.3-0.1v-6.7H455v0.8h7.8v5.3H455V308.1z"/>
	<path fill="#FFFFFF" d="M486.1,318.7v-25.5h5.9v25.5H486.1z M478.4,313.8c-4.5,0-7.4-3.7-7.4-9.6c0-5.9,2.9-9.6,7.4-9.6
		s7.4,3.7,7.4,9.6C485.8,310.2,483.1,313.8,478.4,313.8z M478.4,300.2c-1,0-1.5,2.2-1.5,4.1s0.5,4.1,1.5,4.1s1.6-2.1,1.6-4.1
		S479.6,300.2,478.4,300.2z"/>
	<path fill="#FFFFFF" d="M492,315.9v-5.3h8.7v-0.9h-7.1v-5.3h3.5l-0.3-3.6h-3.1v-5.3h20.1v5.3h-2.9l-0.6,3.6h3.2v5.3h-7.1v0.8h8.8
		v5.3H492V315.9z M504.6,304.3l0.5-3.6h-2.5l0.2,3.6H504.6z"/>
	<path fill="#FFFFFF" d="M513.8,315.5v-5.3h13.9l0.1-0.5c0.3-1.5,0.7-5.3,0.8-8.6h-12.9v-5.3h18.7v1.7c0,4.9-0.3,9.7-0.9,12.7h3.6
		v5.3h-23.3V315.5z"/>
	<path fill="#FFFFFF" d="M551.9,318.7v-1h-4.6v-4.8c-2.2,0.3-5.1,0.6-7.8,0.6h-3.4v-12h6.5v-0.6h-6.5v-5.3h11.1v-1.7h4.6v-0.5h5.8
		v25.5C557.7,318.7,551.9,318.7,551.9,318.7z M541.8,308c1.7-0.1,3.7-0.2,5.3-0.6v-0.6h-5.3V308z"/>
	<path fill="#FFFFFF" d="M573,318.7v-6.1c-1.6,0.2-4.1,0.5-6.5,0.6c-3,0.1-5.3,0.2-7.2,0.2h-1.5l-0.8-5.6c0,0,2.9,0,3.4,0l-0.6-7.2
		H558v-5.3h15.2v-2.2h5.8v25.5C578.9,318.7,573,318.7,573,318.7z M571.3,307.3c0.6,0,1-0.1,1.4-0.2h0.3v-6.5h-1.2L571.3,307.3z
		 M565.7,305.6l0.3-4.9h-0.6L565.7,305.6z"/>
	<path fill="#FFFFFF" d="M601.5,318.7v-25.5h5.9v25.5C607.5,318.7,601.5,318.7,601.5,318.7z M586.7,313.2V295h5.8v5.6h2.7V295h5.8
		v18.2C600.8,313.2,586.7,313.2,586.7,313.2z M595.1,307.9v-2h-2.7v2H595.1z"/>
	<path fill="#FFFFFF" d="M611.4,318v-9.5c-2.4-1-3.9-3.6-3.9-6.7c0-4.2,2.9-7.3,6.8-7.3c2.2,0,3.9,0.8,5.2,2.4v-3.4h4.2v-0.4h5.8
		v19.5h0.6v5.3C630.1,318,611.4,318,611.4,318z M623.8,312.6v-0.2h-4.2v-5.7c-0.6,0.8-1.4,1.4-2.4,1.7v3.9h6.6L623.8,312.6
		L623.8,312.6z M614.4,300.1c-0.8,0-1,1-1,1.7c0,0.1,0,1.7,1,1.7s1.2-1.3,1.2-1.7C615.6,301.6,615.5,300.1,614.4,300.1z"/>
	<path fill="#FFFFFF" d="M631.9,318.4v-7.8h-0.1v-3.9h-2v-12.5h5.8v7.1c2.9-0.1,5.7-0.3,7.5-0.8l0.7-0.1v-7.2h5.9v4.5h3.2v5.3h-3.2
		v10.1h0.8v5.3H631.9z"/>
	<path fill="#FFFFFF" d="M667.3,318.7v-1h-4.2v-4.9c-2,0.3-4.5,0.6-8,0.6h-3.6v-11.9h6v-0.3h-6v-5.3h11.7v-2.1h4.2v-0.5h5.8v25.5
		H667.3z M657.3,307.9c2.1-0.1,3.7-0.2,5-0.5l0.8-0.1v-0.3h-5.9V307.9z"/>
	<path fill="#010101" d="M143.9,310.1c3.8,0,6.5-0.1,9.7-0.7l0.2,1.5c-3.4,0.6-6.1,0.7-10.2,0.7h-1.6v-14.4H152v1.5h-8v4.4h7.5v1.5
		H144v5.2h-0.1V310.1z M161.1,305.7h-3.6v11.1h-2v-21.4h2v8.6h3.6V305.7z"/>
	<path fill="#010101" d="M174.5,304.5c0,4.5-2.3,7.5-5.6,7.5c-3.2,0-5.6-2.9-5.6-7.5c0-4.5,2.3-7.5,5.6-7.5S174.5,299.9,174.5,304.5
		z M165.5,304.5c0,3.5,1.4,5.8,3.6,5.8c2.1,0,3.6-2.3,3.6-5.8c0-3.5-1.4-5.8-3.6-5.8C166.9,298.8,165.5,301,165.5,304.5z
		 M180.5,295.4V317h-2v-21.6C178.6,295.4,180.5,295.4,180.5,295.4z"/>
	<path fill="#010101" d="M204.1,312.6v1.5h-19.5v-1.5h8.7v-4.9h-7v-1.5h3.2V299h-3.4v-1.5H202v1.5h-3.4v7.1h3.2v1.5h-6.7v4.9H204.1z
		 M191.6,306h5.3v-7.1h-5.3V306z"/>
	<path fill="#010101" d="M217.8,308c-2.4-0.8-4.2-2.7-5.1-4.8c-0.9,2.5-2.9,4.4-5.3,5.3l-0.9-1.5c3.2-1.2,5.3-4.1,5.3-7.1v-0.9h-4.8
		v-1.5h11.5v1.5h-4.8v0.9c0,2.9,2.1,5.6,5.2,6.6L217.8,308z M211.8,314.7h12.3v1.5h-14.4v-6.7h2v5.1H211.8z M226.4,302v1.6h-3.2v7.5
		h-2v-15.8h2v6.6h3.2V302z"/>
	<path fill="#010101" d="M236.2,302.3c0,3.6,2.4,7.1,5.7,8.5l-1,1.5c-2.5-1-4.5-3.5-5.6-6.3c-0.9,3-3,5.3-5.6,6.6l-1-1.4
		c3.2-1.5,5.6-5.1,5.6-8.8v-1.6h-5.1v-1.5h4.9v-3.5h2.1v3.4h4.9v1.5h-4.9v1.6L236.2,302.3L236.2,302.3z M245.8,295.4v21.4h-2.1
		v-21.4H245.8z"/>
	<path fill="#010101" d="M270.8,313v2.2h-13.4v-1.4l5.1-4.4c2.9-2.5,5-4.3,5-7c0-2.2-1.3-3.6-3.7-3.6c-2.5,0-3.9,1.5-3.9,4.2
		c0,0.6,0.1,1,0.2,1.6l-2.4-0.1c-0.2-0.6-0.2-1.2-0.2-1.6c0-3.7,2.5-6.1,6.4-6.1c4.2,0,6.3,2.5,6.3,5.6c0,3.2-3,5.9-5.6,7.9
		l-3.4,2.9h9.5V313z"/>
	<path fill="#010101" d="M281,315.4c-4.8,0-7.5-3.4-7.5-9.4c0-6,2.8-9.4,7.5-9.4c4.8,0,7.5,3.4,7.5,9.4
		C288.5,312.1,285.7,315.4,281,315.4z M281,298.6c-3.4,0-4.9,2.5-4.9,7.4c0,4.9,1.5,7.4,4.9,7.4c3.4,0,4.9-2.5,4.9-7.4
		C285.8,301.2,284.3,298.6,281,298.6z"/>
	<path fill="#010101" d="M295.8,315.2v-13.8H291v-1.7h1.3c3,0,3.8-0.6,4.4-2.8h1.6v18.2h-2.7v0.1H295.8z"/>
	<path fill="#010101" d="M305.1,309.2c0.1,2.5,1.7,4.3,4.6,4.3c2.5,0,4.2-1.6,4.2-4.3c0-2.4-1.5-4.2-4.2-4.2c-1.7,0-3.1,0.9-3.8,2.1
		l-2.4-0.5c0.5-2.7,0.9-6.7,1-9.5h10.8c0.1,1.4-0.2,2.4-2.1,2.4c-1.4,0-5-0.2-6.8-0.5c0,1-0.5,5-0.7,6c0.8-1,2.4-2.1,4.4-2.1
		c3.9,0,6.3,2.8,6.3,6.1c0,3.7-2.8,6.4-6.7,6.4s-6.7-2.3-7.1-5.8L305.1,309.2z"/>
	<path fill="#010101" d="M319.7,300.5h3v3h-3V300.5z M319.7,309.6h3v3h-3V309.6z"/>
	<path fill="#010101" d="M342.7,311.8c-1.5-0.9-3.8-3.5-4.4-5.8c-0.5,2.3-2.4,4.8-4.4,6.1l-1.4-1.5c2.8-1.7,4.8-5,4.8-9.4v-1.9h-4.3
		v-1.7h10.5v1.7h-4.1v2.1c0,4.5,2.3,7.5,4.6,8.9L342.7,311.8z M344.9,315.8v-11.1h-3.2v-1.7h3.2v-7.4h2.2v20.3H344.9z M349.3,316.8
		v-21.9h2.2v22h-2.2V316.8z"/>
	<path fill="#010101" d="M366.8,308.2h3.2v2.1h-3.2v4.8h-2.4v-4.8h-9.6v-2.4l8.8-10.9h3.1L366.8,308.2L366.8,308.2z M356.8,308.2
		h7.4V299L356.8,308.2z"/>
	<path fill="#010101" d="M379.1,313.2c-2.4,0.1-5,0.2-7,0.2l-0.3-2c1.7,0,3.9,0,6.1-0.1v-2.1c-2.5-0.3-4.2-1.6-4.2-3.6
		c0-2.3,2.2-3.7,5.2-3.7c3.1,0,5.3,1.4,5.3,3.7c0,2-1.6,3.4-4.3,3.7v2c2.4-0.1,4.8-0.2,6.3-0.5l0.2,1.7
		C384.7,312.9,381.7,313.1,379.1,313.2z M372.5,301v-1.7h13.1v1.7H372.5z M375.7,297.8V296h6.4v1.7H375.7z M378.9,303.8
		c-1.6,0-3,0.8-3,2c0,1,1.2,2,3,2s3-0.8,3-2C382.1,304.8,380.8,303.8,378.9,303.8z M387.7,316.8v-21.9h2.2v22h-2.2V316.8z"/>
	<path fill="#010101" d="M409,309.4v-3.9h-8.7v-1.7h14.5c0.3-1.5,0.6-4.2,0.6-5.8h-12.7v-1.7h15c0,2.9-0.2,5.6-0.7,7.7h3.2v1.7h-8.7
		v3.9h6.3v7.5h-2.5v-5.8h-13.1v-1.7h6.7v-0.2H409z"/>
	<path fill="#010101" d="M431.8,311.8c-1.5-0.9-3.8-3.5-4.4-5.8c-0.5,2.3-2.4,4.8-4.4,6.1l-1.4-1.5c2.8-1.7,4.8-5,4.8-9.4v-1.9H422
		v-1.7h10.5v1.7h-4.1v2.1c0,4.5,2.3,7.5,4.6,8.9L431.8,311.8z M433.9,315.8v-11.1h-3.2v-1.7h3.2v-7.4h2.2v20.3H433.9z M438.3,316.8
		v-21.9h2.2v22h-2.2V316.8z"/>
	<path fill="#010101" d="M463.3,309.2l0.2,1.7c-2.4,0.5-6.3,0.7-10.4,0.8H451v-14.8h10.5v1.7h-8.2v4.4h7.8v1.7h-7.8v4.9
		C457,309.9,460.9,309.6,463.3,309.2z M467.3,303.4h3.5v2h-3.5v11.4h-2.2v-21.9h2.2V303.4z"/>
	<path fill="#010101" d="M478.4,296.5c3.9,0,5.7,3.4,5.7,7.8c0,4.3-1.6,7.8-5.7,7.8s-5.7-3.5-5.7-7.8
		C472.7,299.9,474.6,296.5,478.4,296.5z M478.4,298.5c-2.3,0-3.4,2.5-3.4,5.9c0,3.4,1.2,5.9,3.4,5.9c2.3,0,3.5-2.4,3.5-5.9
		S480.6,298.5,478.4,298.5z M487.8,316.8v-21.9h2.3v22h-2.3V316.8z"/>
	<path fill="#010101" d="M504.7,307.9v4.4h8.8v1.7h-19.9v-1.7h8.7v-4.4h-7v-1.7h3.7l-0.6-5.8l2.3-0.3l0.5,6.1h5l0.8-6l2.2,0.3
		l-0.9,5.7h3.6v1.7H504.7z M495.5,298.8v-1.7h16.5v1.7H495.5z"/>
	<path fill="#010101" d="M515.5,313.7V312h19.9v1.7H515.5z M531.7,310.2l-2.2-0.2c0.6-2.2,0.9-7.5,0.9-10.8h-13v-1.7h15.2
		C532.8,302.3,532.3,307.4,531.7,310.2z"/>
	<path fill="#010101" d="M539.5,311.6h-1.5v-8.4h6.5v-4.2h-6.5v-1.7h8.7v7.9h-6.5v4.8c2.3,0,5.2-0.1,7.5-0.6l0.2,1.7
		C545.8,311.3,542.4,311.6,539.5,311.6z M553.8,316.8v-11.5h-2.5v10.5h-2.2v-20.4h2.2v8.2h2.5v-8.7h2.2v22h-2.2V316.8z"/>
	<path fill="#010101" d="M573.1,310.7c-1.5,0.2-4.1,0.5-6.7,0.6c-2.5,0.1-5,0.2-7.2,0.2l-0.3-2c1,0,2.1,0,3.1,0l-0.7-8.9l2.2-0.2
		l0.6,9.2l2.3-0.1c0.2,0,0.5,0,0.8,0l0.6-8.9l2.2,0.2l-0.8,8.6c1.5-0.1,2.9-0.2,3.7-0.3L573.1,310.7z M559.6,298.8v-1.7H572v1.7
		H559.6z M574.9,316.8v-21.9h2.2v22h-2.2V316.8z"/>
	<path fill="#010101" d="M588.5,311.5v-14.6h2.2v5.6h6.3v-5.6h2.2v14.6C599,311.5,588.5,311.5,588.5,311.5z M596.9,304h-6.3v5.6h6.3
		V304z M603.4,316.8v-21.9h2.3v22h-2.3V316.8z"/>
	<path fill="#010101" d="M621.5,310.6v-7.9h-2.1c-0.3,2.7-2.2,4.6-5,4.6c-3.1,0-5.1-2.5-5.1-5.6c0-3,2-5.6,5-5.6c2.9,0,4.6,2,5,4.4
		h2.1v-5.6h2.2v15.5H621.5z M614.4,298.4c-1.7,0-2.9,1.5-2.9,3.6c0,2.1,1,3.6,2.9,3.6c2,0,3-1.5,3-3.6
		C617.3,299.9,616.3,298.4,614.4,298.4z M613.1,316.2v-7h2.3v5.1h13v1.7C628.3,316.2,613.1,316.2,613.1,316.2z M625.7,311.1v-16.3
		h2.2v16.3C627.8,311.1,625.7,311.1,625.7,311.1z"/>
	<path fill="#010101" d="M634.4,305c-0.9,0-2,0-2.8,0V296h2.2v7.1c3.2,0,7.1-0.3,9.7-0.9c0.1,0.6,0.2,1.2,0.3,2
		C641.4,304.6,637.5,304.9,634.4,305z M633.8,316.7v-5.8h11.9v-2.1h-12.1v-1.7h14.3v5.6H636v2.3h12.7v1.7H633.8z M647.9,301.3v4.6
		h-2.3v-11h2.3v4.4h3.2v1.7h-3.2V301.3z"/>
	<path fill="#010101" d="M655.1,311.6h-1.7v-8.4h6v-3.9h-6v-1.7h8.2v7.7h-6v4.6c2.3,0,4.9-0.1,7.2-0.6c0.1,0.6,0.1,1.2,0.2,1.7
		C661,311.3,658,311.5,655.1,311.6z M665,315.8V305h-2.7v-1.7h2.7v-7.8h2.2v20.4H665z M669.1,316.8v-21.9h2.2v22h-2.2V316.8z"/>
</g>
</svg>
