<?xml version="1.0" encoding="utf-8"?>
<!-- Generator: Adobe Illustrator 18.1.1, SVG Export Plug-In . SVG Version: 6.00 Build 0)  -->
<svg version="1.1" id="Layer_1" xmlns="http://www.w3.org/2000/svg" xmlns:xlink="http://www.w3.org/1999/xlink" x="0px" y="0px"
	 viewBox="11 291 770 30" enable-background="new 11 291 770 30" xml:space="preserve">
<g>
	<path fill="#FFFFFF" d="M149.8,317.8v-5.7c-3.4,0.6-6.2,0.7-9.9,0.7h-3.4v-17.5h13.3v5H142v0.8h7.3v5H142v1.5c2.8,0,5-0.2,7.3-0.6
		l0.5-0.1v-13.5h5.4v8.4h3.5v5.1h-3.5v10.8C155.1,317.8,149.8,317.8,149.8,317.8z"/>
	<path fill="#FFFFFF" d="M172,317.9v-24.5h5.4v24.5H172z M164.7,313.1c-4.2,0-7.1-3.7-7.1-9.1s2.9-9.1,7.1-9.1s7.1,3.7,7.1,9.1
		S168.9,313.1,164.7,313.1z M164.7,300.3c-1,0-1.7,1.6-1.7,3.8c0,2.2,0.7,3.8,1.7,3.8c0.9,0,1.7-1.6,1.7-3.8
		C166.4,301.9,165.6,300.3,164.7,300.3z"/>
	<path fill="#FFFFFF" d="M178.1,315.2v-5h8.5v-1.3h-6.8v-5h3.1v-3.4h-3.3v-5h19v5h-3.3v3.4h3.1v5h-6.8v1.3h8.5v5
		C200.3,315.2,178.1,315.2,178.1,315.2z M190.1,303.8v-3.4h-1.7v3.4H190.1z"/>
	<path fill="#FFFFFF" d="M202.4,317.3v-7.8l-1.3,0.5l-2.9-4.5l2.1-0.7c2.1-0.7,3.6-2.6,4-4.4h-4.5v-5h13.7v-1.9h5.4v6.4h3.1v5h-3
		v7.3h-5.4v-3.8l-0.8,1.2l-1.3-0.5c-1.7-0.7-3.1-1.6-4.3-2.9c-0.3,0.5-0.7,0.8-1.2,1.3h1.9v4.9h12v5H202.4z M209.9,300.3
		c0.3,1.7,1.7,3.3,3.7,4v-4H209.9z"/>
	<path fill="#FFFFFF" d="M235.6,317.8v-5l-0.7,1l-1.3-0.6c-1.7-0.8-3.4-2.1-4.5-3.8c-1.2,1.7-2.8,3.3-4.7,4.2l-1.3,0.6l-3.1-4.3
		l1.9-0.9c2.6-1.2,4.3-4.1,4.4-7h-4.9v-5h4.8v-3.1h5.5v3.3h4v-3.6h5.5v24.3C241.1,317.8,235.6,317.8,235.6,317.8z M231.7,302
		c0,2.6,1.7,5.1,4,6.3V302H231.7z"/>
	<path fill="#FFFFFF" d="M248.8,316.1v-4l5.6-4.8c2.8-2.3,4.3-3.7,4.3-5.5c0-1.2-0.6-1.7-1.9-1.7c-1,0-2.1,0.2-2.1,2.3
		c0,0.3,0,0.7,0.1,0.9l0.9,2.4l-6.2-0.3l-0.3-1.2c-0.2-0.7-0.3-1.5-0.3-2.2c0-4.5,3.1-7.7,7.9-7.7c5.4,0,7.8,3.6,7.8,7.1
		c0,3.8-3.1,6.8-5.6,8.7h6.1v5.6h-16.3V316.1z"/>
	<path fill="#FFFFFF" d="M273.5,316.4c-5.7,0-9.1-4.1-9.1-10.8c0-6.8,3.4-10.8,9.1-10.8s9.1,4.1,9.1,10.8
		C282.6,312.3,279.2,316.4,273.5,316.4z M273.5,300.1c-0.9,0-3,0-3,5.5c0,5.5,2.1,5.5,3,5.5c0.9,0,3,0,3-5.5
		C276.5,300.1,274.5,300.1,273.5,300.1z"/>
	<path fill="#FFFFFF" d="M286.2,316.1v-13.4h-4.7v-5.2h3c2.2,0,2.3-0.1,2.6-1.3l0.3-1.3h4.7v21.2H286.2z"/>
	<path fill="#FFFFFF" d="M301.3,316.4c-4.8,0-8.3-2.9-8.6-7.2l-0.1-1.5l1.2-0.2l-0.5-0.1l0.2-1.7c0.5-2.6,0.9-6.5,0.9-9v-1.7h13.7
		l0.1,1.5c0.1,1.3-0.1,2.3-0.8,3.1c-0.7,0.7-1.6,1.2-2.9,1.2c-0.8,0-2.6-0.1-5.1-0.2c0,0.2,0,0.3-0.1,0.6c0.7-0.2,1.4-0.2,2.2-0.2
		c4.5,0,7.8,3.1,7.8,7.7C309.6,313.1,306.1,316.4,301.3,316.4z M298.6,308.6c0,1.6,1,2.4,2.8,2.4c2.1,0,2.3-1.5,2.3-2.6
		c0-0.7-0.2-2.3-2.3-2.3c-1.4,0-2.1,0.8-2.3,1.2l-0.6,0.9L298.6,308.6z"/>
	<path fill="#FFFFFF" d="M309.3,313.8v-6.4h6.4v6.4H309.3z M309.3,304.8v-6.4h6.4v6.4H309.3z"/>
	<path fill="#FFFFFF" d="M338.1,317.8v-1h-4.2v-3.4l-0.1,0.1l-1.3-0.8c-0.9-0.6-2.2-1.7-3.3-3.1c-1,1.5-2.3,2.7-3.5,3.5l-1.3,0.8
		l-3.8-4.1l1.7-1.2c2.4-1.5,3.8-4.4,3.8-7.7v-0.2H322v-5.1h11.6v-2.1h4.2V293h5.6v24.8C343.5,317.8,338.1,317.8,338.1,317.8z
		 M333.3,305.9c0.1,0.2,0.3,0.5,0.5,0.7v-0.7H333.3z"/>
	<path fill="#FFFFFF" d="M352.7,316.1v-4.7h-9.3v-4.7l9.6-11.6h5.6v10.9h3.1v5.5h-3.1v4.7h-5.8V316.1z M352.7,305.9v-2.2l-1.9,2.2
		H352.7z"/>
	<path fill="#FFFFFF" d="M375.5,317.8v-4c-1.9,0.2-4.3,0.3-6.5,0.6h-1c-2.1,0.1-4.2,0.2-5.8,0.2h-1.4l-1-5.4h2.1c0.7,0,1.4,0,2.1,0
		c-1.3-0.9-2-2.3-2-3.8c0-1.2,0.3-2.1,1-2.9h-2.2v-5.2h3.1V294h9.7v3.3h2V293h5.6v24.8C381.1,317.8,375.5,317.8,375.5,317.8z
		 M375.5,306.8c-0.2,0.7-0.6,1.3-1.2,1.9c0.5,0,0.8-0.1,1.2-0.1V306.8z M367.9,305.3c0.2,0.1,0.5,0.1,0.9,0.1c0.3,0,0.7-0.1,0.9-0.1
		c-0.2-0.1-0.5-0.1-0.9-0.1S368.2,305.3,367.9,305.3z M374.7,302.4c0.3,0.5,0.6,0.9,0.8,1.4v-1.4H374.7z"/>
	<path fill="#FFFFFF" d="M402.2,317.9v-5.6h-12.6V307h6.5v-0.3h-8.5v-5.2h14.2c0.1-0.7,0.1-1.4,0.2-2.2h-12.2v-5.1h18.1v1.7
		c0,2-0.1,4-0.3,5.7h2.8v5.2h-8.5v0.3h6.1V318h-5.7V317.9z"/>
	<path fill="#FFFFFF" d="M424.7,317.8v-1h-4.2v-3.4l-0.1,0.1l-1.3-0.8c-0.9-0.6-2.2-1.7-3.3-3.1c-1,1.5-2.3,2.7-3.5,3.5l-1.3,0.8
		l-3.8-4.1l1.7-1.2c2.4-1.5,3.8-4.4,3.8-7.7v-0.2h-4v-5.1h11.6v-2.1h4.2V293h5.6v24.8C430.2,317.8,424.7,317.8,424.7,317.8z
		 M420,305.9c0.1,0.2,0.3,0.5,0.5,0.7v-0.7H420z"/>
	<path fill="#FFFFFF" d="M450.6,317.8v-5.7c-2.3,0.3-5.7,0.6-9.8,0.7h-3.7v-17.8h13.6v-2h5.6v8.4h3.4v5.2h-3.4v11.2H450.6z
		 M442.7,307.5c3.4,0,6.1-0.2,7.6-0.7l0.3-0.1v-6.5h-7.9v0.8h7.6v5.2h-7.6V307.5z"/>
	<path fill="#FFFFFF" d="M472.9,317.8V293h5.7v24.8C478.6,317.8,472.9,317.8,472.9,317.8z M465.4,313.1c-4.4,0-7.2-3.6-7.2-9.3
		s2.8-9.3,7.2-9.3c4.4,0,7.2,3.6,7.2,9.3C472.6,309.6,470,313.1,465.4,313.1z M465.4,299.9c-1,0-1.5,2.1-1.5,4c0,1.9,0.5,4,1.5,4
		s1.6-2,1.6-4C467,301.9,466.6,299.9,465.4,299.9z"/>
	<path fill="#FFFFFF" d="M478.6,315.1v-5.2h8.5V309h-6.9v-5.2h3.4l-0.3-3.5h-3v-5.2h19.5v5.2H497l-0.6,3.5h3.1v5.2h-6.9v0.8h8.6v5.2
		H478.6z M490.9,303.8l0.5-3.5h-2.4l0.2,3.5H490.9z"/>
	<path fill="#FFFFFF" d="M499.8,314.7v-5.2h13.5l0.1-0.5c0.3-1.5,0.7-5.2,0.8-8.4h-12.5v-5.2h18.2v1.7c0,4.8-0.3,9.4-0.9,12.3h3.5
		v5.2H499.8z"/>
	<path fill="#FFFFFF" d="M536.9,317.8v-1h-4.5v-4.7c-2.1,0.3-5,0.6-7.6,0.6h-3.3V301h6.3v-0.6h-6.3v-5.2h10.8v-1.7h4.5V293h5.6v24.8
		C542.5,317.8,536.9,317.8,536.9,317.8z M527.1,307.4c1.7-0.1,3.6-0.2,5.2-0.6v-0.6h-5.2V307.4z"/>
	<path fill="#FFFFFF" d="M557.4,317.8v-5.9c-1.6,0.2-4,0.5-6.3,0.6c-2.9,0.1-5.2,0.2-7,0.2h-1.5l-0.8-5.4c0,0,2.8,0,3.3,0l-0.6-7
		h-1.7v-5.2h14.8V293h5.6v24.8C563.1,317.8,557.4,317.8,557.4,317.8z M555.7,306.8c0.6,0,1-0.1,1.4-0.2h0.3v-6.3h-1.2L555.7,306.8z
		 M550.3,305.1l0.3-4.8h-0.6L550.3,305.1z"/>
	<path fill="#FFFFFF" d="M585.1,317.8V293h5.7v24.8C590.9,317.8,585.1,317.8,585.1,317.8z M570.7,312.5v-17.7h5.6v5.4h2.6v-5.4h5.6
		v17.7C584.4,312.5,570.7,312.5,570.7,312.5z M578.9,307.3v-1.9h-2.6v1.9H578.9z"/>
	<path fill="#FFFFFF" d="M594.7,317.2V308c-2.3-1-3.8-3.5-3.8-6.5c0-4.1,2.8-7.1,6.6-7.1c2.1,0,3.8,0.8,5.1,2.3v-3.3h4.1V293h5.6v19
		h0.6v5.2C612.9,317.2,594.7,317.2,594.7,317.2z M606.8,311.9v-0.2h-4.1v-5.5c-0.6,0.8-1.4,1.4-2.3,1.7v3.8h6.4V311.9z M597.6,299.8
		c-0.8,0-1,1-1,1.7c0,0.1,0,1.7,1,1.7c1,0,1.2-1.3,1.2-1.7C598.8,301.2,598.7,299.8,597.6,299.8z"/>
	<path fill="#FFFFFF" d="M614.7,317.6v-7.6h-0.1v-3.8h-1.9V294h5.6v6.9c2.8-0.1,5.5-0.3,7.3-0.8l0.7-0.1v-7h5.7v4.4h3.1v5.2h-3.1
		v9.8h0.8v5.2H614.7z"/>
	<path fill="#FFFFFF" d="M649.1,317.8v-1H645v-4.8c-1.9,0.3-4.4,0.6-7.8,0.6h-3.5V301h5.8v-0.3h-5.8v-5.2h11.4v-2h4.1V293h5.6v24.8
		C654.8,317.8,649.1,317.8,649.1,317.8z M639.3,307.3c2-0.1,3.6-0.2,4.9-0.5l0.8-0.1v-0.3h-5.7V307.3z"/>
	<path fill="#010101" d="M140.2,309.5c3.7,0,6.3-0.1,9.4-0.7l0.2,1.5c-3.3,0.6-5.9,0.7-9.9,0.7h-1.6v-14h9.8v1.5h-7.8v4.3h7.3v1.5
		h-7.3v5.1H140.2z M156.9,305.2h-3.5V316h-1.9v-20.8h1.9v8.4h3.5V305.2z"/>
	<path fill="#010101" d="M170,304c0,4.4-2.2,7.3-5.4,7.3c-3.1,0-5.4-2.8-5.4-7.3c0-4.4,2.2-7.3,5.4-7.3
		C167.8,296.7,170,299.6,170,304z M161.2,304c0,3.4,1.4,5.6,3.5,5.6c2,0,3.5-2.2,3.5-5.6s-1.4-5.6-3.5-5.6
		C162.6,298.5,161.2,300.6,161.2,304z M175.8,295.2v21h-1.9v-21C173.9,295.2,175.8,295.2,175.8,295.2z"/>
	<path fill="#010101" d="M198.7,311.9v1.5h-19v-1.5h8.5v-4.8h-6.8v-1.5h3.1v-6.9h-3.3v-1.5h15.5v1.5h-3.3v6.9h3.1v1.5H190v4.8H198.7
		z M186.6,305.5h5.2v-6.9h-5.2V305.5z"/>
	<path fill="#010101" d="M212.1,307.4c-2.3-0.8-4.1-2.6-5-4.7c-0.9,2.4-2.8,4.3-5.2,5.2l-0.9-1.5c3.1-1.2,5.2-4,5.2-6.9v-0.9h-4.7
		v-1.5h11.2v1.5H208v0.9c0,2.8,2,5.4,5.1,6.4L212.1,307.4z M206.2,314h12v1.5h-14V309h1.9v5H206.2z M220.4,301.6v1.6h-3.1v7.3h-1.9
		v-15.4h1.9v6.4H220.4z"/>
	<path fill="#010101" d="M229.9,301.9c0,3.5,2.3,6.9,5.5,8.3l-1,1.5c-2.4-1-4.4-3.4-5.4-6.1c-0.9,2.9-2.9,5.2-5.4,6.4l-1-1.4
		c3.1-1.5,5.4-5,5.4-8.6v-1.6H223v-1.5h4.8v-3.4h2v3.3h4.8v1.5h-4.8v1.6H229.9z M239.3,295.2V316h-2v-20.8H239.3z"/>
	<path fill="#010101" d="M263.6,312.3v2.1h-13V313l5-4.3c2.8-2.4,4.9-4.2,4.9-6.8c0-2.1-1.3-3.5-3.6-3.5c-2.4,0-3.8,1.5-3.8,4.1
		c0,0.6,0.1,1,0.2,1.6l-2.3-0.1c-0.2-0.6-0.2-1.2-0.2-1.6c0-3.6,2.4-5.9,6.2-5.9c4.1,0,6.1,2.4,6.1,5.4c0,3.1-2.9,5.7-5.4,7.7
		l-3.3,2.8H263.6z"/>
	<path fill="#010101" d="M273.5,314.6c-4.7,0-7.3-3.3-7.3-9.1c0-5.8,2.7-9.1,7.3-9.1c4.7,0,7.3,3.3,7.3,9.1
		C280.8,311.4,278.1,314.6,273.5,314.6z M273.5,298.3c-3.3,0-4.8,2.4-4.8,7.2c0,4.8,1.5,7.2,4.8,7.2c3.3,0,4.8-2.4,4.8-7.2
		C278.2,300.8,276.7,298.3,273.5,298.3z"/>
	<path fill="#010101" d="M287.9,314.4V301h-4.7v-1.7h1.3c2.9,0,3.7-0.6,4.3-2.7h1.6v17.7h-2.6V314.4z"/>
	<path fill="#010101" d="M296.9,308.6c0.1,2.4,1.7,4.2,4.5,4.2c2.4,0,4.1-1.6,4.1-4.2c0-2.3-1.5-4.1-4.1-4.1c-1.7,0-3,0.9-3.7,2
		l-2.3-0.5c0.5-2.6,0.9-6.5,1-9.2h10.5c0.1,1.4-0.2,2.3-2,2.3c-1.4,0-4.9-0.2-6.6-0.5c0,1-0.5,4.9-0.7,5.8c0.8-1,2.3-2,4.3-2
		c3.8,0,6.1,2.7,6.1,5.9c0,3.6-2.7,6.2-6.5,6.2s-6.5-2.2-6.9-5.6L296.9,308.6z"/>
	<path fill="#010101" d="M311.1,300.2h2.9v2.9h-2.9V300.2z M311.1,309h2.9v2.9h-2.9V309z"/>
	<path fill="#010101" d="M333.5,311.1c-1.5-0.9-3.7-3.4-4.3-5.6c-0.5,2.2-2.3,4.7-4.3,5.9l-1.4-1.5c2.7-1.7,4.7-4.9,4.7-9.1V299
		h-4.2v-1.7h10.2v1.7h-4v2c0,4.4,2.2,7.3,4.5,8.7L333.5,311.1z M335.6,315v-10.8h-3.1v-1.7h3.1v-7.2h2.1V315H335.6z M339.9,316
		v-21.3h2.1v21.4h-2.1V316z"/>
	<path fill="#010101" d="M356.9,307.6h3.1v2h-3.1v4.7h-2.3v-4.7h-9.3v-2.3l8.6-10.6h3V307.6z M347.2,307.6h7.2v-8.9L347.2,307.6z"/>
	<path fill="#010101" d="M368.9,312.5c-2.3,0.1-4.9,0.2-6.8,0.2l-0.3-1.9c1.7,0,3.8,0,5.9-0.1v-2c-2.4-0.3-4.1-1.6-4.1-3.5
		c0-2.2,2.1-3.6,5.1-3.6c3,0,5.2,1.4,5.2,3.6c0,1.9-1.6,3.3-4.2,3.6v1.9c2.3-0.1,4.7-0.2,6.1-0.5l0.2,1.7
		C374.3,312.2,371.4,312.4,368.9,312.5z M362.5,300.6v-1.7h12.7v1.7H362.5z M365.6,297.5v-1.7h6.2v1.7H365.6z M368.7,303.4
		c-1.6,0-2.9,0.8-2.9,1.9c0,1,1.2,1.9,2.9,1.9c1.7,0,2.9-0.8,2.9-1.9C371.8,304.3,370.5,303.4,368.7,303.4z M377.2,316v-21.3h2.1
		v21.4h-2.1V316z"/>
	<path fill="#010101" d="M397.9,308.8V305h-8.5v-1.7h14.1c0.3-1.5,0.6-4.1,0.6-5.6h-12.3v-1.7h14.6c0,2.8-0.2,5.4-0.7,7.5h3.1v1.7
		h-8.5v3.8h6.1v7.3H404v-5.6h-12.7v-1.7h6.5V308.8z"/>
	<path fill="#010101" d="M420.1,311.1c-1.5-0.9-3.7-3.4-4.3-5.6c-0.5,2.2-2.3,4.7-4.3,5.9l-1.4-1.5c2.7-1.7,4.7-4.9,4.7-9.1V299
		h-4.2v-1.7h10.2v1.7h-4v2c0,4.4,2.2,7.3,4.5,8.7L420.1,311.1z M422.2,315v-10.8h-3.1v-1.7h3.1v-7.2h2.1V315H422.2z M426.4,316
		v-21.3h2.1v21.4h-2.1V316z"/>
	<path fill="#010101" d="M450.7,308.6l0.2,1.7c-2.3,0.5-6.1,0.7-10.1,0.8h-2v-14.4h10.2v1.7h-8v4.3h7.6v1.7h-7.6v4.8
		C444.6,309.3,448.4,309,450.7,308.6z M454.6,303h3.4v1.9h-3.4V316h-2.1v-21.3h2.1V303z"/>
	<path fill="#010101" d="M465.4,296.3c3.8,0,5.5,3.3,5.5,7.6c0,4.2-1.6,7.6-5.5,7.6s-5.5-3.4-5.5-7.6
		C459.9,299.6,461.7,296.3,465.4,296.3z M465.4,298.2c-2.2,0-3.3,2.4-3.3,5.7c0,3.3,1.2,5.7,3.3,5.7c2.2,0,3.4-2.3,3.4-5.7
		C468.8,300.5,467.6,298.2,465.4,298.2z M474.6,316v-21.3h2.2v21.4h-2.2V316z"/>
	<path fill="#010101" d="M491,307.3v4.3h8.6v1.7h-19.3v-1.7h8.5v-4.3H482v-1.7h3.6l-0.6-5.6l2.2-0.3l0.5,5.9h4.9l0.8-5.8l2.1,0.3
		l-0.9,5.5h3.5v1.7H491z M482,298.5v-1.7H498v1.7H482z"/>
	<path fill="#010101" d="M501.5,313v-1.7h19.3v1.7H501.5z M517.2,309.6l-2.1-0.2c0.6-2.1,0.9-7.3,0.9-10.5h-12.6v-1.7h14.8
		C518.3,301.9,517.8,306.9,517.2,309.6z"/>
	<path fill="#010101" d="M524.8,310.9h-1.5v-8.2h6.3v-4.1h-6.3v-1.7h8.5v7.7h-6.3v4.7c2.2,0,5.1-0.1,7.3-0.6l0.2,1.7
		C530.9,310.7,527.6,310.9,524.8,310.9z M538.7,316v-11.2h-2.4V315h-2.1v-19.8h2.1v8h2.4v-8.5h2.1v21.4h-2.1V316z"/>
	<path fill="#010101" d="M557.5,310.1c-1.5,0.2-4,0.5-6.5,0.6c-2.4,0.1-4.9,0.2-7,0.2l-0.3-1.9c1,0,2,0,3,0l-0.7-8.7l2.1-0.2
		l0.6,8.9l2.2-0.1c0.2,0,0.5,0,0.8,0l0.6-8.7l2.1,0.2l-0.8,8.4c1.5-0.1,2.8-0.2,3.6-0.3L557.5,310.1z M544.4,298.5v-1.7h12v1.7
		H544.4z M559.2,316v-21.3h2.1v21.4h-2.1V316z"/>
	<path fill="#010101" d="M572.5,310.8v-14.2h2.1v5.4h6.1v-5.4h2.1v14.2C582.7,310.8,572.5,310.8,572.5,310.8z M580.6,303.6h-6.1v5.4
		h6.1V303.6z M586.9,316v-21.3h2.2v21.4h-2.2V316z"/>
	<path fill="#010101" d="M604.5,310v-7.7h-2c-0.3,2.6-2.1,4.5-4.9,4.5c-3,0-5-2.4-5-5.4c0-2.9,1.9-5.4,4.9-5.4
		c2.8,0,4.5,1.9,4.9,4.3h2v-5.4h2.1V310C606.5,310,604.5,310,604.5,310z M597.6,298.1c-1.7,0-2.8,1.5-2.8,3.5c0,2,1,3.5,2.8,3.5
		c1.9,0,2.9-1.5,2.9-3.5C600.5,299.6,599.5,298.1,597.6,298.1z M596.4,315.4v-6.8h2.2v5h12.6v1.7
		C611.2,315.4,596.4,315.4,596.4,315.4z M608.6,310.5v-15.8h2.1v15.8C610.7,310.5,608.6,310.5,608.6,310.5z"/>
	<path fill="#010101" d="M617.1,304.5c-0.9,0-1.9,0-2.7,0v-8.7h2.1v6.9c3.1,0,6.9-0.3,9.4-0.9c0.1,0.6,0.2,1.2,0.3,1.9
		C623.9,304.1,620.1,304.4,617.1,304.5z M616.5,315.9v-5.6h11.6v-2h-11.8v-1.7h13.9v5.4h-11.6v2.2h12.3v1.7H616.5z M630.2,300.9v4.5
		H628v-10.7h2.2v4.3h3.1v1.7h-3.1V300.9z"/>
	<path fill="#010101" d="M637.2,310.9h-1.7v-8.2h5.8v-3.8h-5.8v-1.7h8v7.5h-5.8v4.5c2.2,0,4.8-0.1,7-0.6c0.1,0.6,0.1,1.2,0.2,1.7
		C642.9,310.7,640,310.8,637.2,310.9z M646.8,315v-10.5h-2.6v-1.7h2.6v-7.6h2.1V315H646.8z M650.8,316v-21.3h2.1v21.4h-2.1V316z"/>
</g>
</svg>
